<?xml version="1.0" encoding="UTF-8" standalone="no"?><!DOCTYPE svg PUBLIC "-//W3C//DTD SVG 1.1//EN" "http://www.w3.org/Graphics/SVG/1.1/DTD/svg11.dtd"><svg width="100%" height="100%" viewBox="0 0 10338 14617" version="1.1" xmlns="http://www.w3.org/2000/svg" xmlns:xlink="http://www.w3.org/1999/xlink" xml:space="preserve" xmlns:serif="http://www.serif.com/" style="fill-rule:evenodd;clip-rule:evenodd;stroke-linejoin:round;stroke-miterlimit:2;"><g id="Layer-1" serif:id="Layer 1"><g><path d="M4576.77,7033.01l-3466.27,-0.069l2.552,847.379l3463.75,-0.261l-0.052,5132.09l468.594,220.573c81.476,30.642 81.389,10.052 231.684,-62.083c51.528,-24.74 202.396,-103.386 241.077,-107.969l-2.257,-5180.07l3512.03,1.389l-4.427,-853.022l-3510.66,1.928l2.708,-3292.85l-938.977,3.003l0.243,3289.97Z" style="fill:#7d1e01;"/></g><g><path d="M7748.72,9950.1c19.896,-15.781 38.23,-20.035 64.011,-20.66c33.003,-0.798 31.962,1.32 62.222,12.691c49.41,18.542 58.004,32.83 84.219,85.521c86.094,96.979 -23.524,330.018 -190.087,275.191c-37.76,-12.43 -56.771,-35.677 -77.153,-65.225c-19.757,-28.646 -24.392,-66.737 -26.198,-102.848c-3.784,-75.972 30.33,-169.236 82.986,-184.67Zm-1128.04,-11.389c28.681,-66.267 61.598,-128.819 156.112,-130.035c84.271,-1.076 150.364,54.705 165.173,126.146c32.396,46.268 4.306,134.15 -21.527,169.618c-112.032,153.785 -277.501,56.476 -307.136,-66.441c-9.705,-40.295 -7.448,-67.604 7.378,-99.288Zm1651.42,187.761c-58.68,-5.174 -94.566,-0.295 -150.903,-13.872c-105.052,-25.312 -91.805,-44.965 -100.208,-65.104c-20.868,-49.948 -14.497,-44.358 -44.531,-85.504c-23.976,-32.83 -19.653,-19.531 -41.441,-37.1l-23.021,-21.181c-24.792,-17.743 -22.535,-2.743 -50.261,-27.274c82.396,-7.257 150.122,-1.754 227.987,22.621c35.642,11.163 23.385,7.188 50.034,28.872l45.886,42.587c36.597,46.284 65.556,101.753 86.458,155.955Zm-2047.52,-123.994c2.778,-89.045 36.424,-161.198 90,-208.767c13.438,-11.927 13.125,-10.417 24.584,-19.722c41.58,-33.837 25.121,-27.014 75.364,-37.049c44.532,-8.889 86.858,-17.812 134.48,-5.069c-9.08,19.149 -15.157,20.798 -26.98,28.333c-20.312,12.917 -17.708,4.306 -27.691,25.608l47.952,-24.011c-8.524,45.608 -29.636,107.882 -58.229,140.851c-42.986,49.549 -164.74,115.07 -259.48,99.826Zm1965.4,-284.149c59.636,-51.892 58.837,-119.67 67.952,-161.632c53.073,2.43 100.208,20 143.819,48.16c0.365,0.243 14.566,10.069 15.521,10.972c24.115,22.413 5.208,19.323 36.215,42.899c51.042,38.75 13.889,10.122 46.684,50.903c-15.451,14.983 7.882,6.892 -37.187,14.965c59.427,4.41 41.371,-0.746 64.913,37.17c-70.087,55.226 -186.302,43.264 -268.42,3.455l-69.497,-46.892Zm-1288.73,-64.045c14.618,-40.174 37.968,-83.334 72.291,-98.247c124.254,-53.976 170.625,163.594 194.358,264.08l-23.611,-13.732c-58.507,-41.32 -115.781,-117.136 -243.038,-152.101Zm1101.63,-288.959c77.796,1.632 99.08,-18.09 149.323,38.802c37.292,42.24 41.719,73.125 50.452,142.24c10.469,52.344 -14.618,114.306 -51.493,146.788c-0.747,0.66 -33.75,25.625 -35.035,26.32c-137.205,72.864 -292.882,-41.702 -238.698,-221.546c36.337,-120.642 84.653,-93.142 125.451,-132.604Zm-551.511,506.285c4.393,-140.521 44.341,-237.639 113.525,-347.674c15.017,-23.871 52.569,-63.663 78.212,-77.43c-43.004,228.576 23.021,197.483 -143.282,376.32c-23.507,25.277 -18.489,34.826 -48.455,48.784Zm-1099.7,-487.743c14.739,-61.459 43.941,-114.254 98.628,-142.639c23.507,-12.222 33.993,-16.458 61.962,-17.934c93.768,-4.965 171.111,68.559 168.438,139.375c30.26,51.927 7.621,146.892 -74.375,200.695c-15.677,10.295 -45.973,22.569 -72.292,23.541c-108.472,4.011 -195.295,-89.948 -182.361,-203.038Zm1295.82,56.163c35.191,-36.007 69.635,-53.385 121.51,-78.16c81.789,-39.045 68.646,-57.222 128.125,1.615c-5.034,20.99 -114.826,154.583 -67.916,254.427c-17.657,21.111 -80.764,42.344 -108.855,50.747c11.997,-145.504 0.903,-167.917 -72.864,-228.629Zm-1644.46,121.91c18.298,-54.983 57.187,-92.604 84.305,-126.389c47.848,-59.636 147.24,-97.535 220.504,-96.719c-14.549,65.99 -1.788,122.709 18.246,178.212c-59.774,1.892 -158.784,99.202 -323.055,44.896Zm2160.99,-363.368c65.764,-10.886 164.549,-138.751 406.424,-23.507c75.26,35.85 44.653,50.347 91.111,74.132c-75.451,56.128 -148.993,97.205 -272.031,84.323c-41.268,-4.323 -100.122,-30.712 -130.695,-52.882c-20.156,-14.618 -12.378,-9.601 -22.517,-22.049l-40.469,-45.92c-1.563,-1.077 -3.75,-2.552 -5.365,-3.524l-26.458,-10.573Zm-2082.4,-261.945c93.126,-25.729 160.782,-71.927 271.372,-27.135c36.111,14.618 86.146,46.059 101.962,63.923c19.583,22.118 21.493,27.24 22.309,45.278c1.997,44.271 6.58,-9.479 12.535,38.281c-189.254,101.25 -330.921,-1.944 -408.178,-120.347Zm1667,-174.358c9.618,-14.739 44.67,-51.528 71.493,-60.121c20.191,-6.459 86.997,-8.021 112.691,-1.771c62.639,15.243 87.882,92.222 88.525,170.538c2.691,40.278 -2.656,64.479 -19.462,89.844c-27.17,41.059 -112.5,110.399 -204.566,69.236c-71.736,-32.083 -108.854,-117.535 -84.028,-209.549c4.653,-17.257 3.629,-20.538 13.663,-37.1c13.733,-22.674 4.584,-13.872 21.684,-21.077Zm-813.941,91.077c4.305,-87.101 68.732,-142.483 155.937,-147.865c38.473,-2.361 91.407,22.17 114.237,38.264c25.816,18.212 44.531,58.246 45.763,90.92c20.157,18.767 21.684,59.983 18.716,88.49c-15.278,146.25 -175.105,163.333 -241.337,129.705c-45.938,-23.334 -114.584,-119.514 -93.316,-199.514Zm1197.36,154.705c-15.07,-78.16 16.84,-166.598 81.649,-209.028c56.545,-37.032 159.41,-63.507 238.976,-41.736c1.545,65.989 -52.396,150.92 -98.142,192.222l-95.921,52.83c-53.767,14.948 -76.753,2.17 -126.562,5.712Zm-754.515,2142.4c10.886,4.479 -6.059,3.49 14.601,4.757l10.66,-0.035c44.218,-7.673 12.569,-41.232 7.986,-82.621c10.781,1.389 14.462,2.76 23.837,4.149c140.538,20.764 295.191,20.712 433.802,2.24c2.57,-26.719 0.59,-2.344 -1.371,-19.219c-3.542,-30.365 -3.455,19.826 -3.612,-25.087c-6.701,17.899 2.882,23.75 -8.281,37.17c-85.295,-33.958 -215.747,-53.507 -268.42,-134.305c52.257,17.448 347.24,27.43 459.41,49.895c44.115,8.82 119.913,24.011 165.174,22.9l-101.389,127.239c-1.094,1.528 -2.535,3.612 -3.577,5.139c-1.059,1.546 -2.413,3.681 -3.437,5.243l-123.785,161.98c-95.729,124.305 -73.073,79.844 -142.309,153.298c-1.285,1.372 -3.073,3.212 -4.375,4.601l-43.854,42.674c-35.643,45.746 -11.129,33.507 -64.497,74.965c-18.628,14.479 -19.462,21.511 -38.194,39.931c-8.351,8.229 -30.382,25.903 -37.014,32.83c-12.084,12.604 -20.139,28.02 -31.042,38.472l-50.122,45.191c-24.583,23.177 -40.729,26.371 -60.26,52.153c-19.288,25.434 -9.514,14.479 -37.517,32.934c-30.973,20.399 -14.219,11.094 -34.514,34.323c-24.237,27.708 -93.021,65.781 -123.421,93.854l-72.465,65.833c-54.549,51.042 -120.538,97.223 -185.521,137.049l-76.111,62.292c-10.452,9.149 -10.035,8.021 -20.07,15.225c-96.562,69.497 -189.08,141.945 -291.927,202.518c-31.163,18.351 -56.562,32.205 -88.733,51.493l-372.604,225.521c-7.153,3.941 -15.174,7.483 -23.49,11.754c-18.784,9.618 -29.722,15.763 -46.198,23.732l-290.052,143.125c-62.708,26.858 -124.149,59.723 -193.576,87.934c-6.233,-60.312 0.121,-173.993 0.833,-239.948l-2.726,-712.379c-0.729,-130.729 -7.882,-890.886 6.58,-956.112l138.854,-35.573c51.598,-9.93 104.41,-19.861 154.636,-28.055c110.365,-18.038 206.406,-32.049 315.139,-44.167c82.118,-9.149 632.882,-46.406 677.483,-20.486c-7.673,7.031 -2.413,3.646 -13.055,10.868c-18.108,12.309 -10.834,7.396 -22.309,12.57c-82.501,37.309 -167.119,64.08 -252.466,88.75l-41.024,16.545l372.969,10.555c71.232,-6.284 158.924,-13.663 180.538,-8.698c52.101,11.945 98.646,56.251 169.41,55.382c-39.045,-28.524 -86.754,-58.246 -115.052,-100.92c-1.025,-1.545 -2.361,-3.75 -3.281,-5.416c-0.955,-1.719 -2.014,-4.08 -2.848,-5.869c-5.191,-11.024 -3.559,-29.079 -16.527,-35.26c-1.355,-0.66 -4.48,-2.448 -6.129,-3.194c-13.576,-6.077 1.076,-0.139 -11.701,-4.879c-12.639,-4.67 -23.646,-9.948 -34.341,1.024c-20.868,21.494 -52.882,27.587 -81.284,33.924c1.632,-2.778 4.027,-5.59 5.902,-7.656l17.778,-18.247c78.959,-66.632 143.368,-194.757 145.33,-297.674c-0.173,65.07 -66.371,206.511 -109.722,256.511c-17.882,20.625 -72.292,35.781 -85.608,57.951l-8.368,21.893c-33.767,32.604 -110.938,25.104 -155.99,25.33c26.754,-19.74 55.921,-30.157 84.167,-46.077c71.58,-40.364 91.91,-86.076 132.17,-127.847c33.507,-34.792 26.077,-30.955 46.875,-75.313c117.987,-251.614 136.268,-813.143 -110.642,-1007.73c-1.337,-1.042 -3.403,-2.587 -4.774,-3.629l-142.327,-85.659c37.57,-20.452 122.83,39.288 169.011,75.312l101.059,90.209c1.198,1.389 2.725,3.437 3.906,4.861l90.399,119.357c-32.812,-161.961 -29.948,-235.538 -100.33,-379.705l-52.829,-67.916c-69.636,-65.33 -157.258,-50.73 -200.817,26.145c-48.854,86.146 -58.958,182.796 -79.843,185.886c-36.546,5.417 -11.511,0.174 -19.792,-10.521c32.066,-129.34 73.524,-243.316 214.271,-262.552c68.924,-9.427 67.639,-5.139 101.302,29.184c-30.278,-55.556 -87.969,-112.083 -154.983,-140.816c-38.246,-16.406 -79.444,-31.858 -113.42,-43.594c-34.757,-11.996 -94.427,-14.878 -119.41,-28.924c31.216,-16.423 84.236,0.625 119.948,10.469l115.973,17.882c-22.049,-6.736 -51.025,-11.51 -67.119,-22.396c162.778,39.618 81.198,35.834 147.796,57.848c-25.643,-15.053 -6.111,-5.226 -24.184,-25.244c-15.729,-17.447 -2.17,-5.329 -22.431,-21.076l-198.993,-139.271c-75.729,-49.965 -153.698,-71.076 -213.889,-103.368l-13.143,-8.628c51.91,8.42 95.053,23.246 141.824,38.906l38.281,13.559c30.66,10.955 63.246,25.885 94.514,27.708c-30.382,-28.976 -64.427,-53.802 -84.427,-94.132l83.142,61.684c1.406,1.111 3.542,2.587 4.913,3.75l89.514,92.986c14.827,16.962 7.639,6.858 22.622,20.764c1.319,1.216 3.246,2.917 4.531,4.15l33.837,36.146c8.194,8.402 11.198,11.666 17.048,17.812c18.629,19.601 39.323,48.212 64.289,58.09l22.413,1.355c1.059,-38.56 -51.441,-202.535 4.601,-228.195c22.465,15.816 24.635,154.74 28.385,188.993c6.094,55.781 17.569,74.202 45.955,118.108l55.243,110.694c11.059,24.393 19.497,47.032 28.75,74.671c13.073,38.975 31.649,128.611 63.629,146.076c-10.834,-25.226 30.573,-205.399 36.77,-249.844c12.171,-87.413 22.431,-180.087 31.181,-273.299c20.295,-215.868 24.931,-322.361 -59.514,-519.392l12.205,9.774c1.632,1.493 3.837,3.264 5.538,4.948c28.49,28.159 33.472,68.142 52.24,104.948l34.375,37.795c1.302,-52.222 -9.531,-131.077 21.094,-174.427c0.572,61.736 -17.292,274.01 3.611,315.295c31.84,-38.646 48.107,-75.434 74.514,-120.66c22.1,-37.83 36.354,-79.739 63.871,-115.746l11.719,-13.455c-20.729,51.423 -45.642,108.958 -70.59,159.062c-17.535,35.243 -73.264,278.021 -81.841,324.931c-8.923,48.733 -23.802,113.49 -14.288,165.903c3.125,17.188 1.424,12.136 7.257,22.327c22.014,-53.646 73.889,-103.525 116.111,-146.685c19.67,-20.121 22.882,-19.826 39.184,-39.496c41.667,-50.261 116.806,-201.563 126.858,-207.118c-21.632,68.489 -55.069,130.503 -80.451,192.882c-28.23,69.444 -55.07,112.187 -102.31,162.187c99.74,-72.899 100.365,-90.955 241.199,-144.583c110.347,-42.014 195.868,-55.382 314.896,-54.393c-46.893,15.261 -99.948,28.716 -152.813,43.351c-105.139,29.115 -229.184,77.9 -307.622,152.049c-1.232,1.163 -3.003,3.038 -4.288,4.149c-1.337,1.146 -3.299,2.778 -4.67,3.872c-75.799,58.698 -81.163,65.92 -135.781,150.33c-78.803,121.771 -111.181,317.292 -98.837,461.962l62.083,-90.261c8.594,-11.284 10.938,-13.177 19.392,-22.361l131.442,-156.302c63.923,-70.417 39.027,-134.74 62.326,-208.611l7.396,-15.33c5.555,90.816 -5.729,148.038 -19.965,230.174c50.711,-40.556 -1.685,-23.716 89.566,-58.663c35.156,-13.473 75.295,-34.219 100.538,-10.122l-30.209,13.559c-58.281,18.455 -134.409,39.792 -164.566,96.649c50.886,-18.767 72.778,-31.441 118.768,2.171c52.014,38.02 37.899,25.555 55.903,89.375c-35.434,-9.844 -26.129,-7.969 -41.632,-35.243c-64.219,-112.987 -138.889,-26.997 -202.153,11.354c-26.389,15.989 -18.16,4.34 -36.268,32.534c-7.343,11.407 -6.215,12.761 -12.847,21.632l-57.361,74.219c-6.667,11.754 -1.962,3.334 -9.392,16.684c-52.049,93.75 -83.212,192.101 -89.514,301.285c-38.212,661.789 196.302,656.164 269.705,746.025c-95.834,-20.069 -102.396,-9.08 -186.233,-52.986c-56.615,-29.653 -79.149,-68.229 -107.934,-123.837c-0.139,0.417 -11.875,116.111 -12.847,135.868c-3.664,74.011 11.111,86.545 30.416,137.587Zm-551.511,-2391.93c-51.267,-35.451 -37.222,-19.132 -78.281,-96.91c-40.052,-75.85 -36.805,-147.604 -25.278,-238.906c15.573,7.378 33.525,11.476 51.268,20.937l47.812,31.042c35.452,18.837 44.792,18.09 72.223,59.844c97.118,147.865 7.5,195.017 -2.935,262.674c-27.968,-6.424 -26.041,-6.025 -46.059,-22.657l-13.784,-12.465c-1.441,-1.076 -3.49,-2.552 -4.966,-3.559Zm-230.278,106.962c-18.871,-11.371 -38.472,-17.361 -60.052,-26.667c-154.028,-66.493 -182.17,-135.208 -234.479,-311.649c91.754,-0.156 189.861,46.007 229.167,92.101c0.382,0.451 11.51,13.819 11.91,14.34c1.111,1.476 2.708,3.455 3.802,4.965l16.232,27.552c7.726,14.792 17.604,32.865 24.184,53.698c15.886,50.226 1.702,90.191 9.236,145.66Zm859.775,-214.583c-105.92,-125.435 -96.475,-256.008 -16.649,-399.393c20.33,-36.476 18.264,-16.945 16.702,-53.49c103.75,57.761 142.829,252.362 69.965,365.07l-70.018,87.813Zm-6337.64,-630.157l3325.18,0.972l-0.712,4921.84c-218.038,-85.121 -782.397,-408.229 -1001.91,-539.132c-158.107,-94.271 -307.778,-207.518 -457.656,-315.643c-27.084,-19.514 -45.052,-37.014 -73.368,-56.944l-144.445,-116.268c-211.788,-166.58 -561.198,-526.111 -706.025,-719.202l-217.187,-295.174c-130.4,-194.045 -264.08,-439.913 -362.032,-663.385c-53.472,-121.962 -96.354,-250.07 -141.233,-380.192c-155.434,-450.729 -192.726,-862.743 -217.986,-1329.46c-9.062,-167.673 3.993,-343.09 -2.622,-507.413Zm6900.65,667.639c22.518,-38.854 16.389,-98.472 36.493,-141.302c8.247,-17.569 25.07,-45.521 32.448,-55.365c97.066,-129.444 139.462,-105.902 292.761,-142.743c-20.243,59.288 -22.674,76.875 -48.628,133.681l-34.514,60.833c-1.059,1.545 -2.483,3.646 -3.525,5.209c-1.076,1.597 -2.378,3.802 -3.455,5.416c-31.875,48.056 -83.489,74.375 -142.014,94.011c-45.555,15.295 -98.784,18.09 -129.566,40.26Zm-337.118,-82.847c1.354,-145.92 67.847,-300.261 208.507,-355.105c46.493,82.917 -20.104,237.449 -49.392,263.247l-84.41,63.177c-0.486,0.365 -18.403,13.629 -20.174,14.74c-23.507,14.514 -21.736,14.115 -54.531,13.941Zm-568.282,-65.382c-100.052,-70.347 -218.837,-196.406 -152.795,-334.41c49.132,-1.615 82.917,23.437 123.698,50.677l39.653,29.931c1.285,1.163 3.194,2.899 4.462,4.097l37.639,50.816c54.93,113.333 25.416,237.726 48.941,259.826l-46.875,-29.34c-18.733,-9.878 -35.539,-18.107 -54.723,-31.597Zm-1463.07,-524.393l3371.86,-1.458c1.892,941.424 -80.452,1504.81 -440.365,2343.51c-67.622,157.587 -165.035,302.726 -245.834,448.767c-26.51,47.934 -67.309,92.205 -87.066,137.605c-149.149,-37.535 -357.986,-58.021 -515.07,-69.566c-121.823,-8.941 -216.059,6.996 -243.889,-52.466c-30.469,-65.121 -48.733,-147.257 -55.903,-230.625c-26.059,-303.125 -24.08,-482.952 167.743,-692.188c12.31,-13.437 65.817,-52.986 88.889,-60.399c52.119,-16.754 59.653,8.194 73.889,40.538c-39.097,33.715 -53.264,27.639 -90.781,74.462c-77.882,97.17 -72.656,268.715 6.354,348.004c131.684,132.152 359.844,14.409 354.046,-167.969c66.805,19.166 227.205,68.854 296.684,24.705c9.462,-11.685 -43.715,-110.4 -54.427,-132.31c-8.646,-17.691 -31.771,-51.145 -40.608,-63.229c-83.68,-114.358 -212.049,-148.316 -371.719,-129.062c-10.521,-11.059 0.382,1.441 -12.483,-16.372l-7.326,-10.764c-20.486,-28.403 -40.382,-44.913 -81.372,-49.739l54.428,-26.771c63.472,-17.535 64.149,15.607 131.041,42.014c99.844,39.409 134.184,5.729 211.094,-19.931c61.146,37.448 99.271,77.413 199.601,88.368c81.372,8.889 184.028,-15.087 236.632,-53.055c-151.962,-280.348 -201.875,-206.58 -342.899,-286.685c-21.216,-78.889 -48.646,-137.101 -109.48,-165.989c-98.264,-46.598 -132.639,22.482 -196.562,-61.077c65.555,-10.555 169.861,-64.74 224.462,-19.288c46.458,38.698 80.712,83.646 159.965,108.698c151.389,47.847 320.139,-30.122 402.344,-105.608c-20,-29.462 -87.43,-83.281 -131.823,-111.337c-244.931,-154.774 -385.781,5.174 -452.639,11.146c-38.542,3.455 -69.097,2.674 -111.111,8.472c18.68,-30.399 38.802,-39.288 61.528,-63.871c22.812,-24.67 25.764,-48.004 62.552,-47.952c209.34,0.226 309.167,-120.486 361.51,-336.84c-142.934,-14.809 -306.163,-23.785 -389.635,106.146c-76.077,118.455 -17.414,164.965 -108.316,248.055c-24.896,22.761 -14.132,21.459 -47.223,40.504c-20.121,11.563 -36.927,20.816 -56.979,29.444l-238.003,105.817l62.899,-132.067c1.962,-4.322 7.882,-17.43 11.528,-25.034l10.694,-20.938c113.351,48.229 210.243,-1.128 258.039,-65.746c80.607,-109.011 42.864,-163.751 13.159,-273.89c117.014,-55.156 187.101,-34.236 273.542,-134.843c62.934,-73.247 95.851,-162.935 118.802,-286.876c-182.031,4.653 -333.125,43.976 -406.476,199.046c-30.139,63.715 -28.403,93.628 -38.819,162.031c-93.507,-18.958 -169.08,-43.576 -243.768,24.601c-48.316,44.114 -103.646,126.979 -81.944,229.41c8.646,40.885 46.128,80.92 27.812,114.948c-37.135,69.028 -145.017,250.799 -200.382,282.257c23.368,-214.184 93.264,-440.452 200.539,-619.08c51.059,-85.035 146.336,-91.251 212.014,-196.997c47.882,-77.101 74.948,-236.094 23.871,-328.507c-93.42,37.413 -183.056,119.6 -233.924,204.566c-62.239,103.976 -47.274,214.323 -100.972,324.844c-28.906,59.496 -66.979,116.233 -94.913,174.358c-17.969,-63.681 -15.052,-178.664 23.073,-227.9c39.444,-50.972 73.194,-86.302 86.979,-173.976c16.771,-106.736 -39.983,-306.632 -153.976,-351.285c-21.406,87.639 -98.837,157.622 -117.396,297.344c-8.576,64.479 2.969,130.052 28.698,180.365l41.111,63.524c10.747,20.521 10.122,9.479 5.972,37.552l-18.038,44.011c-28.073,-66.806 -79.427,-97.813 -117.812,-151.997c-83.195,-117.465 83.854,-328.559 -343.334,-455.104c-66.562,127.535 -21.424,281.337 73.715,368.854c119.271,109.705 212.9,122.153 234.428,147.535c205.278,242.049 105.503,621.181 59.548,937.101c-19.34,-24.774 -32.916,-74.791 -48.073,-106.545c-62.361,-130.625 -107.222,-113.021 -98.906,-361.458c30.799,-21.32 55,-15.33 88.038,-43.125c12.934,-10.886 43.056,-44.271 55.348,-65.035c66.406,-112.344 13.767,-284.966 -100.921,-341.511c-77.309,-38.125 -140,-18.021 -217.604,-0.555c3.958,-183.004 -142.274,-266.494 -283.212,-313.022c-18.264,110.313 -43.594,197.501 6.354,304.358c36.285,77.674 94.15,146.962 178.004,170.296c-5.486,96.146 24.982,183.35 96.128,240.764l63.438,35.017l11.875,162.118c-20.382,-13.628 -9.618,-4.722 -28.594,-26.371l-171.059,-175.886c-65.556,-63.837 -145.833,-125.052 -197.674,-202.743c-45.295,-67.917 39.948,-147.604 -107.396,-292.118c-47.118,-46.216 -193.246,-126.928 -290.121,-100.365c26.111,200.504 83.072,338.507 246.406,395.643c106.51,37.257 76.285,45.312 140.521,120.955c21.962,25.85 45.295,36.892 61.944,64.67c-51.232,-9.913 -105.868,-30.087 -162.743,-40.59c-40.503,-73.768 -109.132,-149.949 -224.34,-166.685c-56.754,-8.264 -126.129,-1.406 -179.618,14.809c-54.792,16.598 -90.261,44.011 -130.539,56.875c18.75,38.716 122.379,137.969 159.15,164.046c65.191,46.25 163.246,68.003 253.489,42.587c45.452,-12.796 80.782,-39.844 119.549,-33.629c85.417,13.698 154.184,57.431 222.952,99.149l87.899,68.889c1.198,-1.718 3.993,4.566 5.799,6.997c-36.528,-8.663 -147.726,-20.59 -166.91,-28.125c-62.743,-24.653 -130.677,-121.302 -267.778,-41.181c-58.629,34.254 -50.643,31.875 -85.104,88.368c-135.973,13.178 -172.726,25.816 -261.198,94.757c-54.237,42.275 -108.889,122.796 -136.685,209.549c110.556,24.288 223.49,35.243 332.744,-5.729c34.774,-13.038 54.288,-29.306 85,-39.479c98.437,164.601 439.288,82.708 379.236,-212.743c107.917,21.145 200.886,49.427 262.691,110.486l-43.125,10.451c-22.639,4.236 -13.541,0.156 -34.722,8.785c-70.868,28.906 -95.538,82.465 -140.191,146.354c-112.57,2.587 -139.514,-5.121 -216.649,52.518c-38.421,28.698 -155.504,19.444 -214.202,47.222c-121.476,57.465 -149.827,187.5 -185.799,342.431c598.508,-25.295 271.962,-408.178 593.022,-358.16c-5.417,95.052 -38.316,57.882 -106.702,114.878c-109.427,91.233 -117.517,295.035 10.365,380.365c216.736,144.584 436.944,-142.483 308.646,-334.149c-64.636,-96.58 -105.799,-31.459 -103.177,-126.129c80.989,25.313 127.083,75.313 179.757,127.535c13.559,13.42 26.232,35 40.191,56.337c116.371,177.778 97.1,458.507 54.67,664.045c-33.594,162.83 -48.681,154.566 -115.139,276.008c-383.994,12.621 -670.591,12.691 -1057.9,72.5c-96.337,14.895 -231.91,50.798 -315.139,58.02l0.225,-2972.26Zm-1073.51,-4272.71l938.977,-3.003l-2.708,3292.85l3510.66,-1.91l4.427,853.004l-3512.03,-1.389l2.257,5180.07c-38.681,4.583 -189.549,83.229 -241.077,107.969c-150.295,72.153 -150.208,92.726 -231.684,62.083l-468.594,-220.573l0.052,-5132.09l-3463.75,0.26l-2.552,-847.379l3466.27,0.069l-0.243,-3289.97Zm1073.89,-0.052l3371.6,-0.885l1.476,3150.02l-3373.81,0.069l0.729,-3149.2Zm-1838.42,3138.42c-26.476,19.792 -1028.46,8.507 -1047.85,8.351c-89.653,-0.712 -179.636,-0.434 -269.324,-0.209c-176.597,0.434 -103.229,25.903 -330.434,-194.375c-37.76,-36.58 -93.976,-104.635 -130.087,-130.937c28.768,34.097 40.851,52.812 74.167,82.829l233.42,238.699c1.216,-1.598 3.594,5.937 5.209,7.725l-1234.18,1.285l3.159,-3149.12c267.639,-16.024 569.254,1.371 840.122,-1.337c250.105,-2.517 2441.44,-10.417 2489.46,5.538l3.49,3144.92c-123.49,-7.865 -558.872,18.958 -637.153,-13.368Zm-2848.93,-3305.3c1.354,1161.08 3.576,2322.85 0.642,3483.77c-3.785,1503.44 -84.01,2587.82 716.424,3864.74c97.223,155.087 171.042,241.806 271.546,379.479c71.406,97.813 133.732,156.615 197.951,236.615c20.278,25.243 29.67,28.889 51.424,52.066c20.069,21.407 34.149,37.413 54.514,58.976l273.663,265c25.208,26.823 36.788,28.854 62.309,50.903l302.119,244.636c250.382,193.073 725.99,495.469 1011.41,630.66c91.145,43.177 183.507,99.479 284.01,149.271l586.442,282.465c349.653,151.962 243.871,175.226 453.854,80.712l591.459,-276.84c48.924,-26.893 95.729,-47.032 145.33,-71.806l213.993,-107.865c25.122,-13.923 43.507,-28.281 70.729,-41.441c94.202,-45.573 188.629,-105.538 277.587,-156.909c281.928,-162.813 526.407,-336.789 775.661,-535.921c164.305,-131.285 436.632,-370.4 565.764,-520.053c34.097,-39.496 71.597,-71.007 105.191,-111.979c66.285,-80.833 135.313,-156.371 201.545,-241.441c235.678,-302.795 469.758,-685.695 637.796,-1108.02c432.101,-1085.94 360.105,-1971.67 362.136,-3123.25l-0.226,-2615c0.018,-289.531 -8.229,-591.163 1.146,-879.167" style="fill:#121105;"/></g><g><path d="M2034.31,6564.26l-65.017,-82.257c-207.396,-236.806 -233.837,-602.206 -39.219,-838.421c10.139,-12.309 10.434,-10.799 20.052,-22.83c110.556,-138.281 62.014,-64.358 150,-146.007c54.67,-50.712 343.351,-247.413 428.716,-309.497c179.115,-130.278 335.035,-356.424 174.201,-572.795c-26.84,-36.112 -39.809,-52.448 -71.458,-75.834l-259.722,-183.073c-107.622,-69.253 -169.271,-106.285 -260.331,-182.587c-88.038,-73.785 -152.656,-171.042 -135.139,-304.358c39.445,48.42 41.962,59.358 89.132,97.865c94.271,76.944 288.907,137.5 409.115,181.528c96.216,35.26 195.435,69.271 285.087,105.972c72.344,29.618 327.101,150.834 389.011,193.473l110.313,88.889c66.163,62.118 113.038,127.882 150.694,240.955c72.171,216.58 -46.337,419.028 -183.021,560.538c-102.014,105.625 -321.302,279.254 -398.628,383.386c-57.9,77.951 -118.855,159.688 -81.841,292.778c26.771,96.215 112.743,163.177 182.587,208.368c41.979,27.153 74.965,48.472 118.108,72.847c38.472,21.719 81.649,49.584 126.753,72.9c41.719,21.545 81.91,48.125 120.747,70.486l434.011,356.563c22.309,22.118 70.781,100.278 83.542,108.281c78.281,32.327 513.663,5.486 637.153,13.351l-3.49,-3144.9c-48.021,-15.954 -2239.36,-8.055 -2489.46,-5.555c-270.868,2.726 -572.483,-14.67 -840.122,1.354l-3.159,3149.1l1234.18,-1.285c-1.615,-1.771 -3.993,-9.305 -5.209,-7.708l-233.42,-238.698c-33.316,-30.018 -45.399,-48.733 -74.167,-82.83" style="fill:#12292e;"/></g><g><path d="M8109.73,6037.38l68.472,353.907c5.625,96.701 55.035,121.615 64.514,193.802c9.444,71.823 -115.052,131.25 -189.531,150.677c-95.626,24.948 -213.473,26.389 -281.407,-26.441c-25.868,-40.972 24.34,-156.632 -4.948,-221.215c-14.878,-32.778 -12.812,-31.163 -16.285,-70.99c-7.239,-82.899 -13.889,-234.062 -30.139,-308.455c-205.156,2.552 -366.84,15.851 -577.639,-2.569c-1.25,2.569 -2.483,3.524 -2.951,8.073c-0.486,4.583 -4.462,13.507 -5.157,16.423l-11.25,94.323c-8.506,87.118 -15.816,196.32 -42.586,276.563c-20.643,61.892 54.739,192.344 -49.74,246.649c-61.267,31.858 -160.139,26.025 -227.465,7.5c-64.81,-17.829 -137.987,-56.58 -169.775,-90.208c-55.885,-59.132 -18.073,-123.854 12.986,-189.219c22.413,-47.153 69.827,-351.476 94.08,-441.476c-112.656,-66.597 -75.295,-37.066 -161.528,-278.663c-60.173,-168.577 -103.368,-327.761 -153.194,-498.438c-27.57,-94.427 -34.792,-85.087 3.993,-170.955c62.048,-137.431 154.739,-296.025 239.844,-419.74l136.458,-185.035c24.931,-28.333 29.601,-38.212 51.042,-61.91c96.076,-106.146 82.969,-103.594 212.934,-221.58c22.656,-20.555 26.215,-30.798 52.431,-51.059c23.333,-18.038 37.222,-33.871 61.111,-51.892c39.427,-29.74 213.247,-180.157 269.913,-170.469c67.257,11.528 290.105,217.153 365.747,285.885c172.205,156.494 373.49,416.529 483.82,610.365c53.941,94.758 99.67,184.653 148.611,286.042c37.847,78.421 15.33,94.237 -8.698,169.775l-165.33,485.972c-87.917,248.334 -52.396,197.275 -168.333,274.358Zm-2460.04,854.81l3373.81,-0.069l-1.476,-3150.02l-3371.6,0.885l-0.729,3149.2Z" style="fill:#e9cd9d;"/></g><g><path d="M1980.21,8903.53c-180.868,-9.566 -338.733,-38.177 -447.622,-177.361c-177.917,-227.378 -7.014,-575.209 101.163,-568.716c62.674,3.768 49.132,78.004 48.039,136.528c-5.244,283.334 443.542,217.24 509.271,129.584c102.604,-136.858 165.538,-66.754 230.069,-125.799c46.303,-42.396 80.973,-55.66 151.823,-56.667c64.15,-0.902 36.65,6.789 85.955,-17.205c48.577,-23.645 108.23,-36.354 168.768,-18.819c90.729,26.25 126.91,-53.993 246.389,13.767c72.083,40.868 132.413,-20.503 236.893,75.452c32.621,29.965 24.704,18.906 76.458,28.177c182.5,32.656 93.125,161.129 349.393,172.535c371.059,16.545 231.406,-280.053 296.458,-322.691c52.014,-34.098 109.965,38.698 126.007,63.507c115.591,178.715 99.306,463.299 -98.021,581.476c-91.771,54.965 -185.66,81.962 -318.212,88.646c10.313,25.295 10.226,25.92 28.889,48.402c150.434,-33.177 224.358,-105.33 412.674,-38.784c119.115,42.083 239.254,133.75 196.198,274.34c-64.896,211.927 -364.132,404.705 -628.855,288.785c35.07,767.136 -259.791,861.667 -259.288,1108.4c0.313,149.93 -42.309,252.778 -166.875,283.281c-47.674,11.667 -49.844,1.129 -79.462,33.351c-25.243,27.483 -27.865,30.608 -58.611,54.74c-39.583,31.076 -88.056,56.892 -152.9,64.843c-67.5,8.282 -119.791,-11.145 -191.527,-0.694c-76.129,11.111 -125.105,8.715 -197.449,-13.906c-127.812,-39.983 -120.85,-117.969 -202.361,-135.243c-232.743,-49.358 -190.92,-227.483 -194.375,-348.317c-4.375,-152.482 -288.785,-256.285 -264.861,-1058.02c-145.99,46.736 -290.678,74.479 -432.622,-5.417c-264.046,-148.611 -373.49,-444.254 -14.844,-553.247c189.41,-57.57 289.427,16.858 410.052,52.674c14.653,-29.132 19.619,-35.573 33.386,-57.605Zm-862.345,-882.795c6.615,164.34 -6.44,339.757 2.622,507.413c25.26,466.719 62.552,878.734 217.986,1329.48c44.879,130.105 87.761,258.212 141.233,380.174c97.952,223.473 231.632,469.341 362.032,663.404l217.187,295.173c144.827,193.074 494.237,552.622 706.025,719.185l144.445,116.285c28.316,19.913 46.284,37.413 73.368,56.944c149.878,108.108 299.549,221.355 457.656,315.643c219.514,130.886 783.873,454.011 1001.91,539.115l0.712,-4921.84l-3325.18,-0.972Z" style="fill:#e9cd9d;"/></g><g><path d="M5649.81,10988c83.229,-7.24 218.802,-43.143 315.139,-58.021c387.309,-59.827 673.906,-59.879 1057.9,-72.5c66.458,-121.459 81.545,-113.195 115.139,-276.007c42.43,-205.556 61.701,-486.268 -54.67,-664.046c-13.959,-21.337 -26.632,-42.917 -40.191,-56.354c-52.674,-52.205 -98.768,-102.205 -179.757,-127.535c-2.622,94.687 38.541,29.548 103.177,126.128c128.298,191.667 -91.91,478.733 -308.646,334.15c-127.882,-85.313 -119.792,-289.132 -10.365,-380.348c68.386,-56.996 101.285,-19.826 106.702,-114.895c-321.06,-50.001 5.486,332.864 -593.022,358.16c35.972,-154.914 64.323,-284.966 185.799,-342.431c58.698,-27.761 175.781,-18.507 214.202,-47.223c77.135,-57.639 104.079,-49.93 216.649,-52.517c44.653,-63.889 69.323,-117.448 140.191,-146.337c21.181,-8.628 12.083,-4.549 34.722,-8.802l43.125,-10.434c-61.805,-61.059 -154.774,-89.34 -262.691,-110.504c60.052,295.469 -280.799,377.344 -379.236,212.744c-30.712,10.191 -50.226,26.458 -85,39.496c-109.254,40.955 -222.188,30.018 -332.744,5.712c27.796,-86.736 82.448,-167.274 136.685,-209.531c88.472,-68.959 125.225,-81.58 261.198,-94.775c34.461,-56.493 26.475,-54.097 85.104,-88.368c137.101,-80.104 205.035,16.528 267.778,41.181c19.184,7.534 130.382,19.461 166.91,28.125c-1.806,-2.431 -4.601,-8.716 -5.799,-6.997l-87.899,-68.889c-68.768,-41.701 -137.535,-85.434 -222.952,-99.149c-38.767,-6.215 -74.097,20.851 -119.549,33.646c-90.243,25.399 -188.298,3.646 -253.489,-42.605c-36.771,-26.076 -140.4,-125.312 -159.15,-164.045c40.278,-12.847 75.747,-40.26 130.539,-56.875c53.489,-16.198 122.864,-23.055 179.618,-14.809c115.208,16.736 183.837,92.917 224.34,166.684c56.875,10.521 111.511,30.677 162.743,40.591c-16.649,-27.778 -39.982,-38.803 -61.944,-64.671c-64.236,-75.625 -34.011,-83.68 -140.521,-120.937c-163.334,-57.136 -220.295,-195.157 -246.406,-395.66c96.875,-26.545 243.003,54.166 290.121,100.382c147.344,144.496 62.101,224.184 107.396,292.101c51.841,77.708 132.118,138.923 197.674,202.743l171.059,175.886c18.976,21.649 8.212,12.743 28.594,26.371l-11.875,-162.118l-63.438,-35c-71.146,-57.431 -101.614,-144.618 -96.128,-240.764c-83.854,-23.351 -141.719,-92.639 -178.004,-170.313c-49.948,-106.84 -24.618,-194.028 -6.354,-304.358c140.938,46.545 287.17,130.035 283.212,313.021c77.604,-17.448 140.295,-37.569 217.604,0.556c114.688,56.545 167.327,229.184 100.921,341.528c-12.292,20.764 -42.414,54.149 -55.348,65.035c-33.038,27.778 -57.239,21.788 -88.038,43.107c-8.316,248.455 36.545,230.834 98.906,361.459c15.157,31.754 28.733,81.771 48.073,106.563c45.955,-315.938 145.73,-695.053 -59.548,-937.119c-21.528,-25.382 -115.157,-37.813 -234.428,-147.518c-95.139,-87.534 -140.277,-241.337 -73.715,-368.872c427.188,126.546 260.139,337.64 343.334,455.122c38.385,54.167 89.739,85.191 117.812,151.98l18.038,-44.011c4.15,-28.055 4.775,-17.031 -5.972,-37.552l-41.111,-63.524c-25.729,-50.295 -37.274,-115.886 -28.698,-180.365c18.559,-139.722 95.99,-209.705 117.396,-297.327c113.993,44.636 170.747,244.532 153.976,351.268c-13.785,87.674 -47.535,123.021 -86.979,173.976c-38.125,49.236 -41.042,164.219 -23.073,227.917c27.934,-58.125 66.007,-114.879 94.913,-174.375c53.698,-110.504 38.733,-220.869 100.972,-324.844c50.868,-84.948 140.504,-167.153 233.924,-204.549c51.077,92.396 24.011,251.406 -23.871,328.49c-65.678,105.746 -160.955,111.979 -212.014,197.014c-107.275,178.611 -177.171,404.878 -200.539,619.063c55.365,-31.441 163.247,-213.212 200.382,-282.257c18.316,-34.028 -19.166,-74.063 -27.812,-114.931c-21.702,-102.431 33.628,-185.313 81.944,-229.41c74.688,-68.195 150.261,-43.559 243.768,-24.601c10.416,-68.403 8.68,-98.316 38.819,-162.048c73.351,-155.07 224.445,-194.393 406.476,-199.028c-22.951,123.923 -55.868,213.611 -118.802,286.875c-86.441,100.59 -156.528,79.687 -273.542,134.826c29.705,110.139 67.448,164.896 -13.159,273.889c-47.796,64.636 -144.688,113.994 -258.039,65.764l-10.694,20.92c-3.646,7.605 -9.566,20.73 -11.528,25.053l-62.899,132.066l238.003,-105.816c20.052,-8.629 36.858,-17.882 56.979,-29.462c33.091,-19.028 22.327,-17.743 47.223,-40.486c90.902,-83.108 32.239,-129.601 108.316,-248.056c83.472,-129.931 246.701,-120.955 389.635,-106.163c-52.343,216.354 -152.17,337.083 -361.51,336.84c-36.789,-0.052 -39.74,23.299 -62.552,47.952c-22.726,24.583 -42.848,33.472 -61.528,63.871c42.014,-5.781 72.569,-5.017 111.111,-8.455c66.858,-5.972 207.708,-165.92 452.639,-11.163c44.393,28.056 111.823,81.893 131.823,111.337c-82.205,75.486 -250.955,153.472 -402.344,105.608c-79.253,-25.052 -113.507,-70 -159.965,-108.681c-54.601,-45.451 -158.907,8.733 -224.462,19.288c63.923,83.559 98.298,14.462 196.562,61.077c60.834,28.871 88.264,87.083 109.48,165.972c141.024,80.104 190.937,6.337 342.899,286.702c-52.604,37.951 -155.26,61.927 -236.632,53.055c-100.33,-10.955 -138.455,-50.92 -199.601,-88.385c-76.91,25.66 -111.25,59.34 -211.094,19.93c-66.892,-26.406 -67.569,-59.531 -131.041,-41.996l-54.428,26.753c40.99,4.844 60.886,21.354 81.372,49.757l7.326,10.764c12.865,17.795 1.962,5.295 12.483,16.354c159.67,-19.253 288.039,14.705 371.719,129.063c8.837,12.083 31.962,45.538 40.608,63.229c10.712,21.927 63.889,120.625 54.427,132.327c-69.479,44.149 -229.879,-5.556 -296.684,-24.723c5.798,182.379 -222.362,300.14 -354.046,167.987c-79.01,-79.306 -84.236,-250.851 -6.354,-348.021c37.517,-46.823 51.684,-40.747 90.781,-74.462c-14.236,-32.344 -21.77,-57.292 -73.889,-40.539c-23.072,7.414 -76.579,46.962 -88.889,60.4c-191.823,209.236 -193.802,389.063 -167.743,692.188c7.17,83.368 25.434,165.503 55.903,230.642c27.83,59.462 122.066,43.525 243.889,52.466c157.084,11.528 365.921,32.014 515.07,69.548c19.757,-45.382 60.556,-89.652 87.066,-137.604c80.799,-146.024 178.212,-291.181 245.834,-448.768c359.913,-838.698 442.257,-1402.08 440.365,-2343.51l-3371.86,1.458l-0.225,2972.28Z" style="fill:#e6ca9d;"/></g><g><path d="M7377.52,11150.4c-0.59,-0.295 -22.986,-12.726 -41.406,-19.601c-70.764,0.868 -117.309,-43.437 -169.41,-55.382c-21.614,-4.965 -109.306,2.413 -180.538,8.698l-372.969,-10.555l41.024,-16.546c85.347,-24.652 169.965,-51.441 252.466,-88.732c11.475,-5.191 4.201,-0.261 22.309,-12.587c10.642,-7.222 5.382,-3.837 13.055,-10.868c-44.601,-25.92 -595.365,11.337 -677.483,20.486c-108.733,12.118 -204.774,26.128 -315.139,44.167c-50.226,8.194 -103.038,18.125 -154.636,28.055l-138.854,35.573c-14.462,65.243 -7.309,825.383 -6.58,956.112l2.726,712.396c-0.712,65.938 -7.066,179.636 -0.833,239.931c69.427,-28.194 130.868,-61.076 193.576,-87.934l290.052,-143.125c16.476,-7.969 27.414,-14.115 46.198,-23.733c8.316,-4.253 16.337,-7.812 23.49,-11.753l372.604,-225.521c32.171,-19.288 57.57,-33.125 88.733,-51.476c102.847,-60.59 195.365,-133.038 291.927,-202.517c10.035,-7.223 9.618,-6.077 20.07,-15.243l76.111,-62.292c64.983,-39.827 130.972,-86.007 185.521,-137.032l72.465,-65.833c30.4,-28.073 99.184,-66.146 123.421,-93.872c20.295,-23.229 3.541,-13.906 34.514,-34.322c28.003,-18.438 18.229,-7.5 37.517,-32.935c19.531,-25.781 35.677,-28.958 60.26,-52.152l50.122,-45.174c10.903,-10.451 18.958,-25.868 31.042,-38.49c6.632,-6.927 28.663,-24.583 37.014,-32.829c18.732,-18.421 19.566,-25.452 38.194,-39.914c53.368,-41.475 28.854,-29.218 64.497,-74.982l43.854,-42.674c1.302,-1.372 3.09,-3.229 4.375,-4.583c69.236,-73.473 46.58,-29.011 142.309,-153.316l123.785,-161.98c1.024,-1.562 2.378,-3.698 3.437,-5.225c1.042,-1.546 2.483,-3.629 3.577,-5.157l101.389,-127.239c-45.261,1.111 -121.059,-14.063 -165.174,-22.9c-112.17,-22.448 -407.153,-32.448 -459.41,-49.896c52.673,80.799 183.125,100.348 268.42,134.306c11.163,-13.403 1.58,-19.271 8.281,-37.17c0.157,44.913 0.07,-5.278 3.612,25.087c1.961,16.875 3.941,-7.5 1.371,19.218c-138.611,18.473 -293.264,18.542 -433.802,-2.239c-9.375,-1.389 -13.056,-2.743 -23.837,-4.149c4.583,41.389 36.232,74.948 -7.986,82.621l-10.66,0.035c-20.66,-1.25 -3.715,-0.261 -14.601,-4.757" style="fill:#283618;"/></g><g><path d="M2034.31,6564.26c36.111,26.284 92.327,94.34 130.087,130.92c227.205,220.278 153.837,194.809 330.434,194.375c89.688,-0.226 179.671,-0.503 269.324,0.208c19.392,0.174 1021.37,11.441 1047.85,-8.35c-12.761,-8.004 -61.233,-86.164 -83.542,-108.282l-434.011,-356.545c-38.837,-22.361 -79.028,-48.941 -120.747,-70.504c-45.104,-23.316 -88.281,-51.163 -126.753,-72.899c-43.143,-24.358 -76.129,-45.677 -118.108,-72.847c-69.844,-45.174 -155.816,-112.136 -182.587,-208.368c-37.014,-133.073 23.941,-214.81 81.841,-292.778c77.326,-104.115 296.614,-277.761 398.628,-383.369c136.684,-141.51 255.192,-343.976 183.021,-560.556c-37.656,-113.055 -84.531,-178.819 -150.694,-240.955l-110.313,-88.871c-61.91,-42.639 -316.667,-163.872 -389.011,-193.473c-89.652,-36.719 -188.871,-70.729 -285.087,-105.972c-120.208,-44.045 -314.844,-104.584 -409.115,-181.545c-47.17,-38.507 -49.687,-49.445 -89.132,-97.848c-17.517,133.299 47.101,230.573 135.139,304.341c91.06,76.302 152.709,113.351 260.331,182.604l259.722,183.073c31.649,23.386 44.618,39.705 71.458,75.834c160.834,216.354 4.914,442.5 -174.201,572.778c-85.365,62.083 -374.046,258.802 -428.716,309.514c-87.986,81.632 -39.444,7.726 -150,145.99c-9.618,12.048 -9.913,10.521 -20.052,22.83c-194.618,236.215 -168.177,601.632 39.219,838.42l65.017,82.275Z" style="fill:#e2c99a;"/></g><g><path d="M2073.73,8979.92l-21.475,67.917c75.764,-32.274 138.368,-69.358 262.535,-9.028c70.468,34.219 129.757,119.514 155.92,199.063c55.798,169.601 78.038,455.087 56.18,624.879c-14.965,116.372 -80,281.268 -131.979,335.313l0.955,11.736c35.694,-21.788 38.646,-39.775 95.694,-59.427c160.035,-55.157 246.581,12.691 385.365,13.125c102.171,0.33 182.205,-30.313 278.473,-29.532c127.951,1.059 164.236,61.25 207.865,91.476c-2.153,-38.906 -49.497,-109.896 -66.528,-161.892c-67.969,-207.535 -100.295,-607.813 -17.118,-811.772c40.781,-99.982 116.267,-202.708 224.132,-235.382c76.875,-23.281 130.764,-2.396 178.698,30.295l-48.49,-127.101c-17.031,-84.027 22.396,-125.625 -19.444,-190.59c-14.809,-22.986 -13.733,-12.882 -30.243,-35.816c51.25,-174.826 -48.75,-131.059 -79.566,-200.92c-19.566,-44.341 -28.907,-64.098 -70.243,-87.587c-35.382,-20.122 -86.077,-28.299 -133.959,-24.67c-54.861,-85.139 -96.667,-87.466 -226.684,-76.511c-33.403,-51.337 -97.761,-65.243 -168.108,-33.837c-57.76,25.799 -28.281,26.91 -77.674,3.438c-33.368,-15.868 -64.097,-18.542 -101.51,-8.941c-39.254,10.069 -74.254,38.385 -87.656,41.684c-1.684,0.399 -4.15,0.885 -5.903,1.111c-44.497,5.66 16.892,1.267 -12.761,-0.121c-200.364,-9.445 -136.059,64.67 -234.548,77.777c-77.188,10.278 -127.257,37.344 -153.646,89.428c-30.573,60.295 -6.042,21.406 -60.122,60.711c-23.576,17.153 -41.684,37.934 -42.344,80.435c-0.816,53.437 28.507,54.461 7.778,93.663c-7.101,13.385 -14.583,16.232 -24.184,37.691c-7.292,16.285 -10.625,32.708 -11.458,50.781c-1.459,32.136 30.833,113.542 -27.952,182.604" style="fill:#e6c996;"/></g><g><path d="M2549.79,10859.3c97.535,-76.528 546.858,-86.181 646.129,-2.917c-39.653,44.67 -60.4,71.91 -123.438,91.788c-66.25,20.868 -128.455,3.542 -195.382,5.33c-170.469,4.566 -236.563,14.844 -327.309,-94.201Zm-235.07,-202.744c-20.833,-139.878 53.906,-444.462 211.615,-483.524c67.569,-16.736 140.295,2.691 205.642,16.788c288.455,62.24 464.844,-99.219 582.414,47.378c116.285,144.983 159.028,448.994 58.108,532.935c-161.389,134.219 -321.112,-128.889 -778.334,11.146c-71.111,21.771 -106.268,47.916 -184.688,13.593c-55.799,-24.427 -83.437,-62.239 -94.757,-138.316Zm1735,-1231.04c-40.85,34.583 -245.625,41.805 -278.594,-21.077c-15.937,-32.448 -2.847,-109.462 13.941,-131.632c29.636,-7.222 13.351,-2.795 37.188,-2.812l39.896,-1.354c42.517,-2.049 42.864,10.972 88.785,18.211c-16.111,-35.034 -13.195,-20.59 -36.893,-42.691c-16.024,-14.965 -13.975,-22.465 -31.719,-24.67l111.268,-9.93c15.191,-2.292 25.937,-6.059 42.5,-8.021c-16.493,-14.757 26.354,-26.233 -35.069,-7.917c14.947,-19.618 -20.4,19.879 10.086,-8.802l19.236,-18.854c-25.277,-6.945 -14.444,-8.576 -36.527,-7.882c91.562,-7.708 78.837,-13.021 154.6,-37.604c34.948,-11.337 37.935,-3.802 57.57,-25.677c-40.052,-3.039 -64.636,-19.254 -121.285,-19.289c-116.285,-0.069 -145.694,29.966 -220.139,75.938c-16.788,10.382 -25.33,17.535 -40.712,28.056l-49.861,27.448c-2.396,1.128 -5.642,2.569 -8.472,3.854l12.587,-172.987c72.378,-61.007 285.989,-109.687 393.16,-58.958c12.465,5.92 16.232,9.479 27.517,15.174l83.906,47.76c72.466,47.188 32.032,152.761 -6.944,215.539c-43.09,69.375 -147.361,145.989 -226.025,168.177Zm-2424.29,-7.309c-52.083,-19.358 -121.823,-59.028 -156.094,-99.566c-47.725,-56.476 -144.114,-164.844 -68.263,-259.948c15.59,-19.514 2.829,-6.112 22.743,-20.869c154.045,-114.097 288.472,-99.305 451.111,-29.809c70.868,30.278 52.934,-3.975 64.931,177.639c-99.41,-23.003 -128.959,-90.26 -239.185,-110.746c-48.263,6.597 -126.805,7.031 -162.257,35.243c1.945,1.25 5.122,0.295 6.268,2.969c2.83,6.527 7.465,3.507 13.524,4.895c15.99,3.664 14.913,2.448 32.049,4.028c63.802,5.851 126.041,30.695 140.017,40.243c-19.08,19.028 -37.309,41.007 -47.951,60.799c19.809,-4.323 54.219,-17.413 75.33,-11.441c10.85,32.274 -11.65,-5.069 -47.431,83.698c50.451,-11.163 26.927,-22.795 69.913,-19.306c29.115,2.362 31.893,-8.159 60.573,-22.777c17.969,38.489 -3.125,7.777 -15.746,56.736c28.663,-8.264 32.621,-18.09 62.291,-26.129l29.254,-0.052c0.59,0.243 2.621,1.545 3.142,1.841l-25.382,37.256c27.848,13.438 18.351,-0.503 40.417,13.125c5.868,169.115 -282.795,107.448 -309.254,82.171Zm2008.53,-498.647c18.559,-26.493 -5.434,-8.072 26.354,-9.357c84.896,134.549 30.695,74.896 41.806,234.705c4.045,58.073 -4.566,83.698 -7.396,138.663c-2.864,55.504 5.747,101.389 -13.281,127.639c-12.899,-27.726 -25.174,-40.59 -53.212,-60.798c-113.906,-82.119 -203.351,74.461 -204.705,86.18c7.361,35.538 1.111,6.615 10.694,19.323l38.299,40.278c45.729,49.479 97.188,57.17 149.045,11.007l45.678,-62.795c0.972,-1.771 2.343,-4.861 4.045,-6.91c11.458,54.375 14.705,123.594 11.267,182.691l-53.247,24.948c29.48,-2.24 27.327,-9.306 53.785,-16.84c-9.427,302.014 -38.628,445.764 -169.635,698.837c-16.632,32.118 -18.837,49.722 -45.591,82.101c-28.107,-35.417 -18.68,-92.188 -70.156,-141.702c-2.865,-2.743 -18.09,-15.468 -18.837,-16.284c-19.635,-20.834 -12.396,-0.973 -15.607,-25.834c-43.629,-30.226 -79.914,-90.417 -207.865,-91.458c-96.268,-0.799 -176.302,29.844 -278.473,29.514c-138.784,-0.434 -225.33,-68.282 -385.365,-13.125c-57.048,19.67 -60,37.639 -95.694,59.427l-0.955,-11.736c-78.333,44.93 -87.118,153.298 -117.274,197.864c-1.702,-2.17 -4.115,-8.177 -4.983,-6.631l-100.365,-167.362c-130.538,-265.677 -107.239,-434.219 -122.048,-693.473l16.25,-82.257c19.149,12.483 6.736,2.483 16.059,15.816c29.566,42.205 40.295,78.872 108.073,74.393c60.816,-4.011 58.281,-28.524 115.66,-61.649c19.184,-11.077 -2.084,23.784 11.059,-8.386c11.909,-36.545 -61.98,-242.778 -253.282,-82.708c-15.139,12.673 -23.733,16.614 -36.233,27.639c-13.784,-43.438 -18.819,-224.844 -22.222,-283.751c-6.007,-104.427 -7.43,-198.264 87.466,-222.43c5.711,48.698 -20.973,35.521 -19.341,74.791c58.785,-69.062 26.493,-150.468 27.952,-182.604c0.833,-18.073 4.166,-34.496 11.458,-50.781c9.601,-21.459 17.083,-24.306 24.184,-37.691c20.729,-39.202 -8.594,-40.226 -7.778,-93.663c0.66,-42.483 18.768,-63.282 42.344,-80.435c54.08,-39.305 29.549,-0.416 60.122,-60.711c26.389,-52.084 76.458,-79.15 153.646,-89.428c98.489,-13.107 34.184,-87.222 234.548,-77.777c29.653,1.406 -31.736,5.798 12.761,0.121c1.753,-0.226 4.219,-0.712 5.903,-1.111c13.402,-3.299 48.402,-31.615 87.656,-41.684c37.413,-9.601 68.142,-6.927 101.51,8.941c49.393,23.472 19.914,22.378 77.674,-3.42c70.347,-31.424 134.705,-17.518 168.108,33.819c130.017,-10.955 171.823,-8.628 226.684,76.511c47.882,-3.629 98.577,4.566 133.959,24.67c41.336,23.489 50.677,43.246 70.243,87.587c30.816,69.861 130.816,26.094 79.566,200.92c16.51,22.934 15.434,12.83 30.243,35.816c41.84,64.965 2.413,106.563 19.444,190.59Zm459.046,-221.545c-4.115,20.625 5.85,-1.024 -24.011,31.059c-37.882,40.695 -62.986,51.424 -130.798,79.236c-61.511,25.243 -171.32,40.747 -240.99,29.497l-4.41,-106.077c-12.153,-15.451 -37.014,-47.291 -36.337,-68.68c1.806,-55.851 11.962,-54.323 -7.986,-112.622c271.598,45.365 422.848,-38.993 430.035,-306.476c77.622,50.191 125.955,271.754 51.736,407.223l-21.996,31.423c-9.688,11.06 -5.382,7.223 -15.243,15.417Zm-2054.36,134.097c-79.496,15.035 -222.5,0.278 -295.295,-28.836c-46.944,-18.785 -84.687,-36.58 -110.434,-64.462c-28.872,-31.285 -60.486,-55.816 -74.358,-106.441c-68.802,-87.309 -43.958,-280.955 50.677,-389.723c19.375,33.49 4.115,113.993 22.257,159.462c69.827,174.931 288.23,179.063 449.289,145.486c-15.781,57.743 -1.667,117.952 -13.108,143.299c-26.25,58.212 -37.691,63.993 -29.028,141.215Zm-58.437,71.389c-13.767,22.032 -18.733,28.473 -33.386,57.605c-120.625,-35.816 -220.642,-110.261 -410.052,-52.691c-358.646,108.993 -249.202,404.635 14.844,553.264c141.944,79.896 286.632,52.153 432.622,5.417c-23.924,801.736 260.486,905.521 264.861,1058.02c3.455,120.834 -38.368,298.959 194.375,348.299c81.511,17.275 74.549,95.278 202.361,135.243c72.344,22.622 121.32,25.035 197.449,13.924c71.736,-10.469 124.027,8.976 191.527,0.694c64.844,-7.951 113.317,-33.767 152.9,-64.843c30.746,-24.132 33.368,-27.257 58.611,-54.74c29.618,-32.24 31.788,-21.684 79.462,-33.368c124.566,-30.486 167.188,-133.351 166.875,-283.264c-0.503,-246.737 294.358,-341.268 259.288,-1108.4c264.723,115.92 563.959,-76.858 628.855,-288.785c43.056,-140.59 -77.083,-232.257 -196.198,-274.34c-188.316,-66.546 -262.24,5.607 -412.674,38.767c-18.663,-22.465 -18.576,-23.09 -28.889,-48.385c132.552,-6.684 226.441,-33.698 318.212,-88.664c197.327,-118.177 213.612,-402.743 98.021,-581.458c-16.042,-24.809 -73.993,-97.605 -126.007,-63.525c-65.052,42.656 74.601,339.237 -296.458,322.709c-256.268,-11.406 -166.893,-139.879 -349.393,-172.535c-51.754,-9.271 -43.837,1.788 -76.458,-28.177c-104.48,-95.955 -164.81,-34.584 -236.893,-75.469c-119.479,-67.743 -155.66,12.5 -246.389,-13.767c-60.538,-17.518 -120.191,-4.809 -168.768,18.819c-49.305,24.011 -21.805,16.302 -85.955,17.222c-70.85,1.007 -105.52,14.271 -151.823,56.667c-64.531,59.045 -127.465,-11.059 -230.069,125.799c-65.729,87.656 -514.515,153.75 -509.271,-129.601c1.093,-58.507 14.635,-132.743 -48.039,-136.511c-108.177,-6.51 -279.08,341.338 -101.163,568.716c108.889,139.167 266.754,167.795 447.622,177.361" style="fill:#121105;"/></g><g><path d="M6677.02,4773.56c25.938,-5.556 13.75,-5.347 23.924,4.149c1.163,1.077 11.545,-11.285 6.319,22.17c-7.534,48.195 -42.76,13.664 -22.639,34.323c11.65,8.837 5.191,2.639 23.872,-5.503l9.705,-4.531c92.76,-39.705 33.125,-46.771 78.229,-48.386c-17.413,29.132 -3.472,4.722 -0.955,30.434l175.035,-220.972c59.41,-56.545 55.764,-62.83 131.667,-129.063c39.167,-34.201 13.212,-31.84 66.892,-62.986l147.257,-120.695c-3.142,205.226 -10.33,415.435 -10.816,624.15l-1.701,631.563c-188.281,-4.062 -377.813,45.521 -544.48,100.313c7.743,1.58 53.386,-6.91 63.785,-9.045c72.049,-14.896 18.038,-5.295 76.337,9.444l-21.649,36.111c-13.855,11.493 -33.577,-7.326 -25.122,24.948c45.868,-18.472 77.865,5.087 102.448,-1.458c1.163,-0.313 3.611,-1.094 4.757,-1.545l19.965,-13.177c-4.062,48.576 8.403,19.427 -29.427,45.989c2.813,-0.034 6.858,-4.01 8.299,-1.319c1.371,2.587 6.146,-1.025 7.969,-1.077c21.527,-0.52 -3.82,-6.302 19.583,0.382l20.972,17.223c34.705,25.972 33.698,3.507 68.733,21.736c-11.788,22.552 -47.066,14.132 -91.163,14.93c0.642,1.788 2.829,2.223 3.298,4.67c1.563,8.23 19.775,13.125 18.334,24.566c-6.146,48.907 16.649,-2.5 -2.691,18.247l-89.931,18.49c-38.09,20.191 -21.215,5.069 -9.427,16.927c334.184,-42.743 832.778,-69.862 1141.42,35.139l-32.968,-19.653c-34.723,-12.222 -104.966,-22.795 -124.237,-43.82c16.58,-7.309 23.056,-3.472 44.723,1.302c8.455,-13.819 6.267,-5.902 2.916,-42.274c15.73,2.396 15.608,3.264 28.507,6.736c2.205,0.59 5,1.441 7.188,2.049l28.455,2.205c-30.382,-15.868 -29.914,-9.341 -65.677,-17.448l20.694,-15.417c0.156,-0.069 33.646,2.361 19.063,-18.472c-10.07,-14.375 22.413,-11.354 -22.101,-8.16l37.274,-25.851l-27.396,-11.389c-0.086,0.782 -1.076,4.098 -1.18,4.809c-0.139,0.834 -0.816,3.872 -1.667,5.625c-27.569,-3.107 -15.087,-0.26 -44.08,-5.451l36.181,-36.476c0.885,-0.659 2.882,-2.222 3.819,-2.934l19.393,-15.625c-2.813,-0.694 -14.549,-2.639 -15.782,-3.402l-8.229,-12.761c27.379,-10.087 27.674,-6.024 52.118,8.941l-2.343,-4.392c-2.9,-21.58 -14.063,2.274 2.343,-16.667c37.344,6.979 33.924,23.594 68.872,5.156c-78.698,-21.996 -155.729,-46.215 -241.858,-62.986c-66.111,-12.882 -226.945,-26.007 -273.681,-41.18l11.007,-1237.21l98.143,71.649c6.632,5.972 11.024,8.785 19.757,15.017l247.118,247.605l148.993,198.802c11.181,17.031 24.722,33.681 32.934,45.781l7.431,-21.423c2.899,0.139 5.277,-1.268 5.711,0.034c0.469,1.32 3.629,-0.52 4.271,-0.694l37.136,-17.483c-12.917,-37.5 -19.705,-43.68 -5.625,-68.941l4.861,-7.517c17.743,45.451 1.58,18.003 29.097,25.66c-16.354,-32.917 -54.948,-89.011 -74.965,-117.362l-144.132,-186.51c-17.882,-18.004 -8.802,-1.58 -26.684,-24.306c-21.32,-27.066 -10,-27.135 -41.563,-54.566c-21.91,-19.027 -28.055,-27.777 -46.476,-49.218c-27.743,-32.275 -62.343,-68.907 -93.298,-97.865l-125.868,-109.705c-30.035,-24.705 -204.827,-164.08 -212.101,-141.719l-371.997,291.736l-187.518,212.032c-49.948,65 -163.507,218.698 -195.382,277.587" style="fill:#b68a33;"/></g><g><path d="M7933.18,6516.81l78.056,-11.198l44.236,181.649c-31.58,5.834 -57.43,18.542 -88.594,9.913l-33.698,-180.364Zm-1035.95,197.76c-38.49,-1.007 -73.525,0.261 -104.757,-16.441c2.291,-33.264 29.531,-160.885 46.215,-181.979c12.274,2.379 26.372,5.486 39.566,8.733l38.004,13.732c-12.327,56.771 -34.393,115.921 -19.028,175.955Zm1130.33,-216.545l66.979,-21.528l52.187,156.997c-21.163,24.774 -45.712,36.545 -80.347,46.788c1.128,-74.201 -31.319,-119.045 -38.819,-182.257Zm36.51,-452.813l66.337,362.709c-34.584,6.666 -9.948,1.996 -34.965,14.288c-104.063,51.146 -181.876,58.837 -293.421,41.424c-3.993,-116.684 -43.715,-341.893 -29.739,-439.619c-17.535,-30.642 -18.386,-100.833 -18.976,-144.809c72.309,8.681 141.406,19.445 212.569,35.452c89.81,20.225 72.57,-3.664 98.195,130.555Zm-977.674,33.004c-11.511,68.819 -9.896,143.125 -18.594,209.045c-7.084,53.611 -10.66,157.014 -32.604,178.125c-49.74,47.865 -198.247,4.34 -250.834,-19.67l-49.358,-30.278c-11.007,-9.722 -6.18,-5.104 -17.552,-16.285l66.736,-364.375l20.955,-103.385c41.823,-6.528 89.966,-27.223 137.396,-36.858c43.403,-8.819 110.677,-19.549 158.646,-19.913l-14.791,203.594Zm57.934,-40.764c-4.705,-31.754 7.048,-40.816 7.552,-98.959c0.746,-85.017 50.937,-59.791 146.857,-65.712c119.028,-7.343 360.608,9.983 405.886,5.105l12.136,161.736c-8.716,-8.889 -220.851,17.986 -269.931,18.021l-302.5,-20.191Zm-467.31,-1263.91c31.875,-58.888 145.434,-212.569 195.382,-277.587l187.518,-212.031l371.997,-291.719c7.274,-22.378 182.066,116.997 212.101,141.719l125.868,109.688c30.955,28.975 65.555,65.607 93.298,97.882c18.421,21.441 24.566,30.191 46.476,49.218c31.563,27.431 20.243,27.483 41.563,54.549c17.882,22.726 8.802,6.319 26.684,24.323l144.132,186.493c20.017,28.368 58.611,84.445 74.965,117.379l13.542,12.812c2.934,3.264 8.784,10.66 11.146,14.288l55.764,100.973c26.805,43.42 47.76,86.979 71.198,136.719c81.371,172.639 67.569,107.517 6.788,288.524c-33.802,100.643 -62.986,208.559 -98.907,309.167l-110.034,298.976l-100.678,-45.208c-308.646,-105.018 -807.24,-77.882 -1141.42,-35.157c-27.865,13.091 -157.639,52.552 -199.584,64.549l-193.246,-600.591c-53.941,-190.069 -57.969,-134.826 21.215,-301.806c20.347,-42.916 51.545,-85.677 71.337,-127.569c10.972,-23.212 21.996,-43.507 33.941,-61.493c20.538,-30.92 21.701,-42.986 38.958,-54.098Zm1432.71,1263.84c115.937,-77.083 80.416,-26.024 168.333,-274.34l165.33,-485.99c24.028,-75.538 46.545,-91.337 8.698,-169.775c-48.941,-101.371 -94.67,-191.267 -148.611,-286.024c-110.33,-193.854 -311.615,-453.889 -483.82,-610.383c-75.642,-68.732 -298.49,-274.357 -365.747,-285.885c-56.666,-9.688 -230.486,140.746 -269.913,170.469c-23.889,18.021 -37.778,33.854 -61.111,51.892c-26.216,20.261 -29.775,30.504 -52.431,51.059c-129.965,117.986 -116.858,115.434 -212.934,221.58c-21.441,23.715 -26.111,33.577 -51.042,61.91l-136.458,185.052c-85.105,123.698 -177.796,282.292 -239.844,419.723c-38.785,85.885 -31.563,76.528 -3.993,170.955c49.826,170.677 93.021,329.861 153.194,498.438c86.233,241.597 48.872,212.083 161.528,278.663c-24.253,90 -71.667,394.323 -94.08,441.476c-31.059,65.365 -68.871,130.087 -12.986,189.219c31.788,33.628 104.965,72.379 169.775,90.208c67.326,18.525 166.198,24.358 227.465,-7.5c104.479,-54.288 29.097,-184.757 49.74,-246.649c26.77,-80.243 34.08,-189.445 42.586,-276.563l11.25,-94.323c0.695,-2.916 4.671,-11.823 5.157,-16.423c0.468,-4.549 1.701,-5.504 2.951,-8.073c210.799,18.42 372.483,5.121 577.639,2.569c16.25,74.41 22.9,225.556 30.139,308.455c3.473,39.827 1.407,38.212 16.285,70.99c29.288,64.583 -20.92,180.243 4.948,221.215c67.934,52.83 185.781,51.389 281.407,26.441c74.479,-19.427 198.975,-78.854 189.531,-150.677c-9.479,-72.187 -58.889,-97.083 -64.514,-193.802l-68.472,-353.907Z" style="fill:#151206;"/></g><g><path d="M7336.12,11130.8c18.42,6.893 40.816,19.306 41.406,19.601c-19.305,-51.042 -34.08,-63.576 -30.416,-137.587c0.972,-19.74 12.708,-135.451 12.847,-135.868c28.785,55.625 51.319,94.201 107.934,123.854c83.837,43.906 90.399,32.917 186.233,52.986c-73.403,-89.878 -307.917,-84.236 -269.705,-746.025c6.302,-109.184 37.465,-207.535 89.514,-301.285c7.43,-13.368 2.725,-4.93 9.392,-16.684l57.361,-74.218c6.632,-8.872 5.504,-10.226 12.847,-21.632c18.108,-28.195 9.879,-16.546 36.268,-32.552c63.264,-38.334 137.934,-124.324 202.153,-11.337c15.503,27.274 6.198,25.399 41.632,35.243c-18.004,-63.837 -3.889,-51.354 -55.903,-89.375c-45.99,-33.611 -67.882,-20.938 -118.768,-2.188c30.157,-56.857 106.285,-78.177 164.566,-96.632l30.209,-13.559c-25.243,-24.097 -65.382,-3.351 -100.538,10.122c-91.251,34.948 -38.855,18.107 -89.566,58.663c14.236,-82.136 25.52,-139.358 19.965,-230.174l-7.396,15.33c-23.299,73.872 1.597,138.195 -62.326,208.611l-131.442,156.285c-8.454,9.202 -10.798,11.077 -19.392,22.379l-62.083,90.26c-12.344,-144.67 20.034,-340.191 98.837,-461.962c54.618,-84.41 59.982,-91.632 135.781,-150.347c1.371,-1.077 3.333,-2.726 4.67,-3.855c1.285,-1.111 3.056,-2.986 4.288,-4.149c78.438,-74.167 202.483,-122.951 307.622,-152.049c52.865,-14.635 105.92,-28.09 152.813,-43.35c-119.028,-0.99 -204.549,12.378 -314.896,54.392c-140.834,53.629 -141.459,71.684 -241.199,144.583c47.24,-50 74.08,-92.743 102.31,-162.187c25.382,-62.396 58.819,-124.393 80.451,-192.882c-10.052,5.555 -85.191,156.858 -126.858,207.118c-16.302,19.653 -19.514,19.375 -39.184,39.497c-42.222,43.159 -94.097,93.038 -116.111,146.684c-5.833,-10.191 -4.132,-5.139 -7.257,-22.327c-9.514,-52.413 5.365,-117.17 14.288,-165.92c8.577,-46.91 64.306,-289.67 81.841,-324.913c24.948,-50.105 49.861,-107.639 70.59,-159.063l-11.719,13.455c-27.517,35.989 -41.771,77.917 -63.871,115.729c-26.407,45.226 -42.674,82.031 -74.514,120.677c-20.903,-41.302 -3.039,-253.559 -3.611,-315.295c-30.625,43.351 -19.792,122.205 -21.094,174.427l-34.375,-37.795c-18.768,-36.806 -23.75,-76.788 -52.24,-104.948c-1.701,-1.684 -3.906,-3.455 -5.538,-4.948l-12.205,-9.774c84.445,197.031 79.809,303.507 59.514,519.392c-8.75,93.195 -19.01,185.886 -31.181,273.299c-6.197,44.445 -47.604,224.619 -36.77,249.844c-31.98,-17.482 -50.556,-107.118 -63.629,-146.076c-9.253,-27.639 -17.691,-50.278 -28.75,-74.67l-55.243,-110.695c-28.386,-43.906 -39.861,-62.326 -45.955,-118.108c-3.75,-34.253 -5.92,-173.177 -28.385,-188.993c-56.042,25.66 -3.542,189.636 -4.601,228.195l-22.413,-1.354c-24.966,-9.896 -45.66,-38.49 -64.289,-58.091c-5.85,-6.146 -8.854,-9.41 -17.048,-17.812l-33.837,-36.146c-1.285,-1.233 -3.212,-2.952 -4.531,-4.167c-14.983,-13.889 -7.795,-3.785 -22.622,-20.746l-89.514,-92.987c-1.371,-1.163 -3.507,-2.638 -4.913,-3.75l-83.142,-61.684c20,40.33 54.045,65.157 84.427,94.132c-31.268,-1.823 -63.854,-16.771 -94.514,-27.725l-38.281,-13.559c-46.771,-15.66 -89.914,-30.469 -141.824,-38.907l13.143,8.646c60.191,32.292 138.16,53.403 213.889,103.368l198.993,139.271c20.261,15.729 6.702,3.629 22.431,21.059c18.073,20.035 -1.459,10.209 24.184,25.261c-66.598,-22.014 14.982,-18.229 -147.796,-57.865c16.094,10.903 45.07,15.66 67.119,22.413l-115.973,-17.882c-35.712,-9.843 -88.732,-26.892 -119.948,-10.468c24.983,14.045 84.653,16.909 119.41,28.923c33.976,11.736 75.174,27.188 113.42,43.577c67.014,28.75 124.705,85.277 154.983,140.833c-33.663,-34.323 -32.378,-38.611 -101.302,-29.184c-140.747,19.236 -182.205,133.212 -214.271,262.552c8.281,10.695 -16.754,15.938 19.792,10.521c20.885,-3.09 30.989,-99.757 79.843,-185.903c43.559,-76.857 131.181,-91.458 200.817,-26.128l52.829,67.916c70.382,144.167 67.518,217.744 100.33,379.706l-90.399,-119.375c-1.181,-1.407 -2.708,-3.455 -3.906,-4.844l-101.059,-90.226c-46.181,-36.007 -131.441,-95.747 -169.011,-75.295l142.327,85.66c1.371,1.041 3.437,2.569 4.774,3.628c246.91,194.584 228.629,756.112 110.642,1007.73c-20.798,44.357 -13.368,40.52 -46.875,75.295c-40.26,41.788 -60.59,87.5 -132.17,127.864c-28.246,15.921 -57.413,26.337 -84.167,46.077c45.052,-0.226 122.223,7.257 155.99,-25.33l8.368,-21.892c13.316,-22.171 67.726,-37.327 85.608,-57.952c43.351,-50 109.549,-191.441 109.722,-256.51c-1.962,102.916 -66.371,231.024 -145.33,297.673l-17.778,18.247c-1.875,2.066 -4.27,4.878 -5.902,7.639c28.402,-6.32 60.416,-12.413 81.284,-33.906c10.695,-10.99 21.702,-5.695 34.341,-1.025c12.777,4.74 -1.875,-1.198 11.701,4.879c1.649,0.746 4.774,2.534 6.129,3.194c12.968,6.181 11.336,24.236 16.527,35.261c0.834,1.788 1.893,4.149 2.848,5.868c0.92,1.666 2.256,3.854 3.281,5.416c28.298,42.674 76.007,72.379 115.052,100.903" style="fill:#5a3405;"/></g><g><path d="M2538.27,10327.1c60.33,10.642 32.222,52.621 62.431,84.618c8.871,9.409 27.777,16.059 46.388,31.805c41.494,35.104 84.757,93.438 37.171,141.98c-45.348,46.232 -67.865,17.395 -99.428,-5.886c17.865,-16.719 30.66,-19.861 40.105,-44.618c-39.792,-28.611 -85.487,-26.007 -108.646,-73.403c-24.74,-50.607 -10.764,-109.427 21.979,-134.496Zm613.282,260.017c-13.82,10.434 -40.226,37.743 -81.98,7.483c-110.659,-80.104 68.056,-179.271 85.487,-208.247c15.816,-26.285 20.486,-69.045 57.257,-57.274c28.055,8.993 30.833,57.135 25.416,90c-15.486,94.201 -66.232,67.066 -128.107,115.92c18.871,31.545 22.76,18.212 41.927,52.118Zm-836.824,69.497c11.32,76.059 38.958,113.889 94.757,138.316c78.42,34.323 113.577,8.177 184.688,-13.611c457.222,-140.018 616.945,123.09 778.334,-11.146c100.92,-83.924 58.177,-387.934 -58.108,-532.917c-117.57,-146.615 -293.959,14.844 -582.414,-47.396c-65.347,-14.08 -138.073,-33.524 -205.642,-16.771c-157.709,39.063 -232.448,343.646 -211.615,483.525" style="fill:#d98558;"/></g><g><path d="M2394.91,10198.1c51.979,-54.045 117.014,-218.941 131.979,-335.296c21.858,-169.809 -0.382,-455.278 -56.18,-624.896c-26.163,-79.549 -85.452,-164.827 -155.92,-199.063c-124.167,-60.312 -186.771,-23.246 -262.535,9.045l21.475,-67.934c-1.632,-39.27 25.052,-26.076 19.341,-74.791c-94.896,24.166 -93.473,118.003 -87.466,222.448c3.403,58.906 8.438,240.312 22.222,283.733c12.5,-11.025 21.094,-14.966 36.233,-27.639c191.302,-160.053 265.191,46.163 253.282,82.708c-13.143,32.17 8.125,-2.674 -11.059,8.386c-57.379,33.125 -54.844,57.638 -115.66,61.649c-67.778,4.479 -78.507,-32.17 -108.073,-74.393c-9.323,-13.316 3.09,-3.333 -16.059,-15.798l-16.25,82.257c14.809,259.254 -8.49,427.778 122.048,693.455l100.365,167.362c0.868,-1.528 3.281,4.461 4.983,6.631c30.156,-44.566 38.941,-152.934 117.274,-197.864" style="fill:#752202;"/></g><g><path d="M3633.96,8919.61l48.49,127.101c-47.934,-32.709 -101.823,-53.594 -178.698,-30.313c-107.865,32.691 -183.351,135.417 -224.132,235.4c-83.177,203.958 -50.851,604.236 17.118,811.754c17.031,52.014 64.375,123.003 66.528,161.892c3.211,24.879 -4.028,5.018 15.607,25.851c0.747,0.799 15.972,13.542 18.837,16.285c51.476,49.496 42.049,106.284 70.156,141.701c26.754,-32.378 28.959,-49.983 45.591,-82.118c131.007,-253.056 160.208,-396.823 169.635,-698.82c-26.458,7.517 -24.305,14.583 -53.785,16.84l53.247,-24.948c3.438,-59.114 0.191,-128.333 -11.267,-182.691c-1.702,2.049 -3.073,5.139 -4.045,6.91l-45.678,62.778c-51.857,46.163 -103.316,38.489 -149.045,-10.99l-38.299,-40.295c-9.583,-12.691 -3.333,16.233 -10.694,-19.306c1.354,-11.718 90.799,-168.316 204.705,-86.18c28.038,20.191 40.313,33.073 53.212,60.781c19.028,-26.232 10.417,-72.118 13.281,-127.639c2.83,-54.965 11.441,-80.59 7.396,-138.663c-11.111,-159.792 43.09,-100.156 -41.806,-234.705c-31.788,1.302 -7.795,-17.136 -26.354,9.375" style="fill:#752202;"/></g><g><path d="M6743.49,4955.18c58.993,34.375 6.701,-31.146 36.458,12.118c7.361,10.711 3.334,-1.754 3.455,14.496c0.018,1.476 -0.503,4.375 -0.642,5.903c-0.208,2.257 -2.379,9.097 -2.726,11.302c-5.642,36.736 15.764,47.014 5.643,72.57c-5.764,14.531 -10.747,-9.167 3.888,29.149c0.539,1.406 1.528,4.201 2.032,5.573c16.51,44.705 -8.82,-10.504 4.218,13.594c13.959,25.746 -8.993,5.243 11.303,3.941l20.017,88.073c1.701,0.173 4.514,-1.528 5.121,0.364l51.389,37.465c26.598,15.313 12.5,-28.941 23.785,11.806c-9.219,4.618 2.674,3.819 -15.312,3.542c-8.525,-0.122 -16.789,-2.309 -28.837,-4.497l19.635,23.281c0.59,0.816 1.91,2.882 2.431,3.664l33.246,52.204c-12.031,27.136 -11.979,11.841 -18.628,43.438c1.597,1.25 4.774,0.226 5.573,2.465l11.024,3.542c1.285,0.208 4.08,0.677 5.538,0.833l11.702,0.261c1.857,0.052 4.496,-0.174 6.354,-0.157c5.121,0.087 14.93,0.33 21.267,0.452c-28.542,39.757 -5.434,33.906 -39.392,18.073c7.205,25.416 6.041,16.979 29.392,37.639c1.563,1.371 4.254,3.698 5.556,4.843c1.337,1.181 3.889,3.23 5.521,5.139c-1.303,2.587 -5.417,7.865 -5.973,8.993l-4.895,23.438c-21.268,6.389 -19.74,8.125 -47.223,9.722l-2.014,-23.559c-1.718,-17.066 3.438,-7.917 -2.899,-19.114c-11.267,29.635 -0.347,51.996 -25.885,57.743c14.531,11.458 -6.91,5.798 46.944,8.732c-21.042,5.295 -32.691,7.604 -56.979,15.261c-59.011,18.559 -32.604,7.534 -23.577,19.878c63.646,-0.451 273.803,-69.722 425.661,-60.607l14.218,-1148.25c-48.385,15.504 -117.76,91.945 -158.68,126.858c-70.365,60.052 -98.612,107.187 -139.306,147.795c-50.799,50.712 -78.108,100.33 -125.729,161.111l-112.674,170.921Z" style="fill:#b48532;"/></g><g><path d="M7985.42,5562.5c-1.858,-2.743 -5.469,-8.993 -7.153,-6.909c-1.458,1.823 -8.559,-8.264 -14.271,-11.719c-19.704,-11.927 -27.951,-7.049 -43.073,-19.774c-35.555,-29.931 28.212,34.514 -8.09,-9.323l-7.048,-11.077c-23.976,46.216 20.85,4.098 -7.188,19.236c-0.677,-0.468 -14.566,-11.336 -15.26,-12.013l-18.264,-20.174c20.364,-8.264 33.68,-34.063 36.753,-57.726c0.99,1.84 2.084,2.795 2.604,5.677c0.712,4.028 5.105,9.219 6.407,11.042c7.899,10.937 4.635,7.222 13.819,16.128c18.299,-23.854 13.889,-18.142 26.233,-15.329c-4.427,-18.959 -13.368,-21.389 -28.681,-32.987c26.181,2.466 23.212,4.723 43.698,8.889c6.077,-20.156 9.792,-23.003 20.556,-34.6c-25.209,-27.171 -23.525,9.201 -21.493,-60.938c-1.962,-1.458 -5.417,-5.469 -6.441,-3.542c-0.955,1.858 -4.914,-2.708 -6.198,-3.385l-23.854,-12.396c-0.73,-0.451 -2.639,-1.962 -3.334,-2.396l-6.562,-4.427c-64.879,-34.462 1.441,11.615 -25.226,-8.507c45.382,-19.045 22.118,-3.229 55.799,-10.191l-10.816,-15.642c-24.028,-36.372 -15,-9.948 -13.907,-30.833c0.296,-5.834 8.872,-28.386 14.132,-33.907l36.875,-54.705c-14.965,-10.468 -19.132,-16.805 -32.916,-37.135c1.475,-1.528 4.184,-5.573 4.93,-4.028l28.455,-23.42c10.521,-12.135 -1.701,22.413 9.514,-15.278c-2.187,0.295 -5.33,-0.347 -6.233,2.309c-0.885,2.604 -4.861,1.823 -6.059,2.431c-1.597,0.816 -9.236,4.653 -11.232,5.85c-2.257,1.337 -12.101,9.775 -18.559,13.577c2.361,-16.823 1.649,-34.653 5.017,-47.431c14.063,-53.125 9.601,-14.583 41.754,-37.135l43.628,-3.177c-0.451,-2.952 -1.649,-10.209 -1.962,-8.75l-3.246,-15.486c-0.278,-1.65 -1.025,-4.601 -1.216,-6.233c-1.267,-10.764 -5.92,-20.174 17.414,-32.813c0.764,-0.416 3.316,-1.475 4.045,-1.788c0.712,-0.312 3.576,-1.128 4.166,-1.371c0.591,-0.226 2.9,-0.521 4.271,-1.007l-3.055,-43.368c-1.198,-0.782 4.045,-14.584 -29.497,13.559c4.306,-22.587 -1.371,-29.757 -2.587,-33.594l-0.069,-42.951c0.347,-1.32 0.99,-4.41 1.528,-6.598c-12.032,-5.33 -11.493,6.181 -19.913,-5.989c-1.233,-1.789 1.527,-3.021 -1.042,-23.733c0.798,26.615 -4.254,1.754 26.285,3.663l-123.907,-162.031c-9.687,-9.34 -14.219,-14.809 -23.941,-28.507c-38.003,-53.559 -134.826,-136.042 -159.566,-162.986c-17.048,-18.542 -9.705,-17.136 -25.851,-34.271l-98.489,-69.775c7.066,184.497 -21.65,1068.77 -2.292,1151.11c141.962,12.24 255.521,39.671 390.608,67.882" style="fill:#b48532;"/></g><g><path d="M6677.02,4773.55c-17.257,11.094 -18.42,23.178 -38.958,54.098c-11.945,17.986 -22.969,38.281 -33.941,61.493c-19.792,41.892 -50.99,84.653 -71.337,127.569c-79.184,166.98 -75.156,111.737 -21.215,301.806l193.246,600.591c41.945,-11.997 171.719,-51.458 199.584,-64.549c-11.788,-11.84 -28.663,3.264 9.427,-16.909l89.931,-18.507c19.34,-20.73 -3.455,30.677 2.691,-18.23c1.441,-11.458 -16.771,-16.336 -18.334,-24.566c-0.469,-2.447 -2.656,-2.882 -3.298,-4.687c44.097,-0.781 79.375,7.639 91.163,-14.931c-35.035,-18.211 -34.028,4.254 -68.733,-21.736l-20.972,-17.205c-23.403,-6.684 1.944,-0.92 -19.583,-0.382c-1.823,0.052 -6.598,3.664 -7.969,1.077c-1.441,-2.709 -5.486,1.285 -8.299,1.302c37.83,-26.545 25.365,2.587 29.427,-45.99l-19.965,13.177c-1.146,0.452 -3.594,1.233 -4.757,1.545c-24.583,6.546 -56.58,-16.996 -102.448,1.476c-8.455,-32.292 11.267,-13.472 25.122,-24.965l21.649,-36.094c-58.299,-14.739 -4.288,-24.34 -76.337,-9.462c-10.399,2.153 -56.042,10.643 -63.785,9.063c-35.972,-15.59 -28.298,-19.67 -57.222,-98.82c-13.125,-35.92 -28.924,-72.899 -39.948,-108.038c-82.049,-261.042 -101.476,-219.097 26.233,-433.646c29.982,-50.347 107.048,-155.122 107.083,-181.823c-2.517,-25.712 -16.458,-1.285 0.955,-30.434c-45.104,1.632 14.531,8.68 -78.229,48.385l-9.705,4.549c-18.681,8.125 -12.222,14.323 -23.872,5.503c-20.121,-20.677 15.105,13.872 22.639,-34.34c5.226,-33.438 -5.156,-21.076 -6.319,-22.17c-10.174,-9.479 2.014,-9.705 -23.924,-4.15" style="fill:#875b14;"/></g><g><path d="M8114.12,4863.81c7.17,30.799 30.104,59.844 48.785,88.385c15.625,23.855 15.521,28.299 24.236,45.903c47.083,95.018 101.007,145.695 75.781,246.928c-21.18,84.982 -103.489,327.621 -141.528,394.323l-49.687,-13.004c-34.948,18.42 -31.528,1.823 -68.872,-5.156c-16.406,18.924 -5.243,-4.913 -2.343,16.649l2.343,4.41c-24.444,-14.965 -24.739,-19.045 -52.118,-8.941l8.229,12.743c1.233,0.781 12.969,2.726 15.782,3.42l-19.393,15.625c-0.937,0.712 -2.934,2.275 -3.819,2.934l-36.181,36.476c28.993,5.174 16.511,2.344 44.08,5.451c0.851,-1.77 1.528,-4.809 1.667,-5.642c0.104,-0.712 1.094,-4.028 1.18,-4.792l27.396,11.389l-37.274,25.834c44.514,-3.195 12.031,-6.198 22.101,8.159c14.583,20.834 -18.907,18.421 -19.063,18.49l-20.694,15.417c35.763,8.09 35.295,1.58 65.677,17.43l-28.455,-2.187c-2.188,-0.608 -4.983,-1.459 -7.188,-2.049c-12.899,-3.489 -12.777,-4.34 -28.507,-6.753c3.351,36.389 5.539,28.472 -2.916,42.291c-21.667,-4.774 -28.143,-8.628 -44.723,-1.319c19.271,21.042 89.514,31.597 124.237,43.837l32.968,19.653l100.678,45.208l110.034,-298.976c35.921,-100.608 65.105,-208.524 98.907,-309.167c60.781,-180.99 74.583,-115.885 -6.788,-288.524c-23.438,-49.74 -44.393,-93.299 -71.198,-136.702l-55.764,-100.99c-2.362,-3.628 -8.212,-11.024 -11.146,-14.288l-13.542,-12.812c-27.517,-7.674 -11.354,19.791 -29.097,-25.66l-4.861,7.5c-14.08,25.26 -7.292,31.458 5.625,68.958l-37.136,17.483c-0.642,0.174 -3.802,2.014 -4.271,0.694c-0.434,-1.302 -2.812,0.105 -5.711,-0.052l-7.431,21.424Z" style="fill:#875b14;"/></g><g><path d="M7985.42,5562.5l112.986,33.16c30.243,-53.437 155,-368.229 134.948,-432.917c-15.034,-48.489 -147.656,-291.337 -194.757,-351.007l-9.739,-10.66c-30.539,-1.909 -25.487,22.952 -26.285,-3.663c2.569,20.712 -0.191,21.944 1.042,23.733c8.42,12.17 7.881,0.659 19.913,5.989c-0.538,2.188 -1.181,5.278 -1.528,6.598l0.069,42.951c1.216,3.837 6.893,11.007 2.587,33.594c33.542,-28.143 28.299,-14.341 29.497,-13.559l3.055,43.368c-1.371,0.486 -3.68,0.781 -4.271,1.007c-0.59,0.243 -3.454,1.059 -4.166,1.371c-0.729,0.313 -3.281,1.372 -4.045,1.788c-23.334,12.639 -18.681,22.049 -17.414,32.813c0.191,1.632 0.938,4.583 1.216,6.233l3.246,15.486c0.313,-1.459 1.511,5.798 1.962,8.75l-43.628,3.177c-32.153,22.552 -27.691,-15.99 -41.754,37.135c-3.368,12.778 -2.656,30.608 -5.017,47.431c6.458,-3.802 16.302,-12.24 18.559,-13.577c1.996,-1.197 9.635,-5.034 11.232,-5.85c1.198,-0.608 5.174,0.173 6.059,-2.431c0.903,-2.656 4.046,-2.014 6.233,-2.309c-11.215,37.691 1.007,3.143 -9.514,15.278l-28.455,23.42c-0.746,-1.545 -3.455,2.5 -4.93,4.028c13.784,20.33 17.951,26.667 32.916,37.118l-36.875,54.722c-5.26,5.521 -13.836,28.073 -14.132,33.907c-1.093,20.885 -10.121,-5.539 13.907,30.833l10.816,15.642c-33.681,6.962 -10.417,-8.854 -55.799,10.191c26.667,20.122 -39.653,-25.955 25.226,8.507l6.562,4.427c0.695,0.434 2.604,1.945 3.334,2.396l23.854,12.396c1.284,0.677 5.243,5.243 6.198,3.385c1.024,-1.927 4.479,2.084 6.441,3.542c-2.032,70.139 -3.716,33.767 21.493,60.938c-10.764,11.597 -14.479,14.444 -20.556,34.6c-20.486,-4.166 -17.517,-6.423 -43.698,-8.889c15.313,11.598 24.254,14.028 28.681,32.987c-12.344,-2.813 -7.934,-8.525 -26.233,15.329c-9.184,-8.906 -5.92,-5.191 -13.819,-16.128c-1.302,-1.823 -5.695,-7.014 -6.407,-11.042c-0.52,-2.882 -1.614,-3.837 -2.604,-5.677c-3.073,23.663 -16.389,49.462 -36.753,57.726l18.264,20.174c0.694,0.677 14.583,11.545 15.26,12.013c28.038,-15.138 -16.788,26.98 7.188,-19.236l7.048,11.077c36.302,43.837 -27.465,-20.608 8.09,9.323c15.122,12.725 23.369,7.847 43.073,19.774c5.712,3.455 12.813,13.542 14.271,11.719c1.684,-2.084 5.295,4.166 7.153,6.909" style="fill:#976819;"/></g><g><path d="M7086.4,6078.22c-56.65,14.184 -99.601,6.458 -148.108,-3.768c-22.587,-4.757 -51.754,-11.562 -77.466,-16.406c-35.885,-6.753 -38.402,-10.503 -76.632,-23.264l-66.736,364.393c11.372,11.18 6.545,6.562 17.552,16.267l49.358,30.278c52.587,24.028 201.094,67.552 250.834,19.687c21.944,-21.111 25.52,-124.514 32.604,-178.142c8.698,-65.92 7.083,-140.208 18.594,-209.045" style="fill:#7e2101;"/></g><g><path d="M7772.28,6024.02c-13.976,97.743 25.746,322.952 29.739,439.619c111.545,17.43 189.358,9.739 293.421,-41.424c25.017,-12.292 0.381,-7.604 34.965,-14.288l-66.337,-362.709l-32.17,20.625c-30.191,15.295 -73.716,13.264 -113.16,17.761l-144.896,-0.504l-1.562,-59.08Z" style="fill:#842403;"/></g><g><path d="M6840.01,5557.33c-22.916,16.91 -51.007,22.587 -82.448,28.073c-25.677,-94.011 -76.736,-220.157 -112.899,-321.58c-39.028,-109.445 50.66,-232.049 98.837,-308.664l112.674,-170.92c47.621,-60.764 74.93,-110.399 125.729,-161.094c40.694,-40.625 68.941,-87.76 139.306,-147.795c40.92,-34.913 110.295,-111.372 158.68,-126.858l-14.218,1148.23c-151.858,-9.097 -362.015,60.174 -425.661,60.608Zm-44.531,-751.112c-0.035,26.684 -77.101,131.459 -107.083,181.823c-127.709,214.532 -108.282,172.587 -26.233,433.629c11.024,35.139 26.823,72.135 39.948,108.038c28.924,79.15 21.25,83.247 57.222,98.82c166.667,-54.792 356.199,-104.393 544.48,-100.313l1.701,-631.563c0.486,-208.715 7.674,-418.924 10.816,-624.15l-147.257,120.695c-53.68,31.146 -27.725,28.785 -66.892,62.986c-75.903,66.215 -72.257,72.518 -131.667,129.063l-175.035,220.972Z" style="fill:#0c0c04;"/></g><g><path d="M1558.56,8632.4c16.528,-0.052 6.059,-11.893 -10.729,-74.584c9.236,8.681 11.528,25.677 24.896,39.636c24.062,25.104 114.913,88.298 157.951,104.149c85.869,31.65 217.952,38.229 306.615,8.993c-3.993,41.372 -28.611,85.851 1.354,121.545c-8.663,-77.222 2.778,-83.003 29.028,-141.198c11.441,-25.364 -2.673,-85.573 13.108,-143.316c-161.059,33.577 -379.462,29.445 -449.289,-145.486c-18.142,-45.451 -2.882,-125.955 -22.257,-159.462c-94.635,108.768 -119.479,302.414 -50.677,389.723" style="fill:#ddba85;"/></g><g><path d="M3692.8,8731.76c15.33,-58.75 -0.295,-37.187 -1.476,-38.576l33.629,11.788c-15.903,3.768 -13.351,11.042 -14.08,13.629c-0.191,0.659 -0.035,3.42 0.243,5.104c101.302,40.712 306.459,-19.879 375.973,-81.024c11.232,-9.879 21.354,-18.716 32.395,-27.066c-5.364,41.822 -22.552,36.718 -26.475,82.43c9.861,-8.194 5.555,-4.357 15.243,-15.417l21.996,-31.423c74.219,-135.469 25.886,-357.014 -51.736,-407.205c-7.187,267.465 -158.437,351.823 -430.035,306.458c19.948,58.316 9.792,56.788 7.986,112.622c-0.677,21.389 24.184,53.229 36.337,68.68" style="fill:#dab682;"/></g><g><path d="M7985.42,5562.5c-135.087,-28.211 -248.646,-55.642 -390.608,-67.882c-19.358,-82.326 9.358,-966.598 2.292,-1151.11l98.489,69.792c16.146,17.136 8.803,15.712 25.851,34.271c24.74,26.927 121.563,109.41 159.566,162.986c9.722,13.698 14.254,19.15 23.941,28.49l123.907,162.049l9.739,10.642c47.101,59.688 179.723,302.535 194.757,351.007c20.052,64.705 -104.705,379.48 -134.948,432.917l-112.986,-33.16Zm86.285,63.855l49.687,13.003c38.039,-66.719 120.348,-309.358 141.528,-394.323c25.226,-101.233 -28.698,-151.91 -75.781,-246.927c-8.715,-17.605 -8.611,-22.049 -24.236,-45.921c-18.681,-28.524 -41.615,-57.569 -48.785,-88.368c-8.212,-12.083 -21.753,-28.75 -32.934,-45.781l-148.993,-198.785l-247.118,-247.622c-8.733,-6.232 -13.125,-9.045 -19.757,-15.017l-98.143,-71.649l-11.007,1237.21c46.736,15.173 207.57,28.316 273.681,41.18c86.129,16.788 163.16,41.007 241.858,63.004" style="fill:#0c0c04;"/></g><g><path d="M6840.01,5557.33c-9.027,-12.327 -35.434,-1.32 23.577,-19.879c24.288,-7.639 35.937,-9.948 56.979,-15.243c-53.854,-2.951 -32.413,2.709 -46.944,-8.75c25.538,-5.746 14.618,-28.107 25.885,-57.743c6.337,11.198 1.181,2.049 2.899,19.115l2.014,23.559c27.483,-1.597 25.955,-3.334 47.223,-9.722l4.895,-23.438c0.556,-1.111 4.67,-6.406 5.973,-8.993c-1.632,-1.91 -4.184,-3.958 -5.521,-5.139c-1.302,-1.146 -3.993,-3.455 -5.556,-4.844c-23.351,-20.659 -22.187,-12.205 -29.392,-37.639c33.958,15.834 10.85,21.684 39.392,-18.072c-6.337,-0.105 -16.146,-0.365 -21.267,-0.452c-1.858,-0.017 -4.497,0.208 -6.354,0.156l-11.702,-0.243c-1.458,-0.173 -4.253,-0.625 -5.538,-0.85l-11.024,-3.542c-0.799,-2.24 -3.976,-1.215 -5.573,-2.465c6.649,-31.598 6.597,-16.302 18.628,-43.438l-33.246,-52.205c-0.521,-0.781 -1.841,-2.847 -2.431,-3.663l-19.635,-23.281c12.048,2.187 20.312,4.375 28.837,4.514c17.986,0.26 6.093,1.059 15.312,-3.559c-11.285,-40.747 2.813,3.507 -23.785,-11.806l-51.389,-37.465c-0.607,-1.893 -3.42,-0.191 -5.121,-0.365l-20.017,-88.073c-20.296,1.302 2.656,21.806 -11.303,-3.941c-13.038,-24.097 12.292,31.111 -4.218,-13.576c-0.504,-1.389 -1.493,-4.184 -2.032,-5.59c-14.635,-38.316 -9.652,-14.601 -3.888,-29.15c10.121,-25.555 -11.285,-35.833 -5.643,-72.569c0.347,-2.205 2.518,-9.045 2.726,-11.302c0.139,-1.528 0.66,-4.427 0.642,-5.903c-0.121,-16.25 3.906,-3.785 -3.455,-14.479c-29.757,-43.282 22.535,22.239 -36.458,-12.136c-48.177,76.615 -137.865,199.219 -98.837,308.646c36.163,101.424 87.222,227.587 112.899,321.58c31.441,-5.486 59.532,-11.163 82.448,-28.055" style="fill:#976819;"/></g><g><path d="M1625.43,9418.22c-8.889,-70.382 -1.441,-29.305 30.07,-69.01c1.076,-1.372 2.673,-3.472 3.663,-4.931l14.601,-34.271c-15.087,-0.381 -16.615,-18.489 -48.507,-16.041c-16.302,1.267 -5.66,14.357 -16.823,-5.226c-8.143,-14.305 -19.045,8.837 -2.361,-30.868l-22.396,-0c8.229,-14.844 1.632,-0.747 5.382,-16.91c4.01,-17.309 6.927,-24.114 -8.976,-32.413c-56.128,-29.253 -6.424,-3.767 -29.184,-0.243c-27.743,4.323 -14.462,2.257 -46.476,-5.747l7.552,-13.385c-0.086,-1.007 -0.364,-3.802 -0.659,-4.913c-8.768,-32.552 -24.914,-25.018 -51.007,-40.434c25.573,-33.907 13.541,-103.75 220.121,-97.136c61.91,1.979 70.591,-18.455 82.553,11.372c-8.959,18.316 -28.49,6.528 -49.237,-2.674c-21.684,14.879 -5,-5.017 -13.073,19.549c110.226,20.486 139.775,87.743 239.185,110.746c-11.997,-181.614 5.937,-147.361 -64.931,-177.639c-162.639,-69.496 -297.066,-84.288 -451.111,29.809c-19.914,14.757 -7.153,1.355 -22.743,20.869c-75.851,95.104 20.538,203.472 68.263,259.948c34.271,40.538 104.011,80.208 156.094,99.548" style="fill:#6d1a01;"/></g><g><path d="M7144.33,6037.45l302.5,20.191c49.08,-0.035 261.215,-26.91 269.931,-18.021l-12.136,-161.736c-45.278,4.878 -286.858,-12.448 -405.886,-5.105c-95.92,5.921 -146.111,-19.305 -146.857,65.712c-0.504,58.143 -12.257,67.205 -7.552,98.959" style="fill:#382507;"/></g><g><path d="M4205.99,9094.83c-19.635,21.875 -22.622,14.34 -57.57,25.677c-75.763,24.583 -63.038,29.896 -154.6,37.604c22.083,-0.694 11.25,0.937 36.527,7.882l-19.236,18.854c-30.486,28.681 4.861,-10.816 -10.086,8.802c61.423,-18.316 18.576,-6.84 35.069,7.917c-16.563,1.962 -27.309,5.729 -42.5,8.021l-111.268,9.93c17.744,2.205 15.695,9.705 31.719,24.67c23.698,22.101 20.782,7.657 36.893,42.691c-45.921,-7.239 -46.268,-20.26 -88.785,-18.211l-39.896,1.354c-23.837,0.017 -7.552,-4.41 -37.188,2.812c-16.788,22.17 -29.878,99.184 -13.941,131.632c32.969,62.882 237.744,55.66 278.594,21.077c-8.072,-19.636 -4.079,-2.431 0.921,-15.469c15.989,-41.701 8.107,20.521 13.42,-27.361c1.51,-13.507 -15.538,-13.334 21.458,-34.809l7.049,-3.16c-15.261,-49.219 23.593,36.858 -7.413,-10.382c-19.063,-29.028 -18.542,5.035 -8.542,-18.368c3.298,-0.208 19.271,-0.451 33.142,-0.486c49.757,-0.139 32.066,11.719 47.205,-2.951c24.879,-24.098 0.521,3.871 10.035,-20.938c10.173,-26.476 40.069,-66.979 72.066,-70.99c6.424,-0.816 4.375,0 4.219,1.493c27.899,-25.59 -0.434,5.643 0.937,-9.027c3.681,-39.445 12.24,-28.316 17.674,-44.41l-1.667,-19.115c48.785,-9.218 41.702,2.396 41.702,-39.392c0.086,0.087 21.822,4.114 -2.935,8.802c-0.694,0.139 -3.402,0.486 -4.305,0.451l-36.007,-14.809c-27.153,-11.788 -11.632,7.986 -52.691,-9.791" style="fill:#481702;"/></g><g><path d="M4205.99,9094.85c41.059,17.778 25.538,-2.014 52.691,9.792l36.007,14.791c0.903,0.052 3.611,-0.312 4.305,-0.434c24.757,-4.687 3.021,-8.732 2.935,-8.802c-0,41.788 7.083,30.174 -41.702,39.393l1.667,19.114c-5.434,16.094 -13.993,4.966 -17.674,44.41c-1.371,14.67 26.962,-16.58 -0.937,9.01c0.156,-1.475 2.205,-2.309 -4.219,-1.493c-31.997,4.028 -61.893,44.514 -72.066,71.007c-9.514,24.809 14.844,-3.177 -10.035,20.938c-15.139,14.67 2.552,2.795 -47.205,2.934c-13.871,0.035 -29.844,0.295 -33.142,0.486c-10,23.403 -10.521,-10.66 8.542,18.385c31.006,47.223 -7.848,-38.836 7.413,10.382l-7.049,3.16c-36.996,21.458 -19.948,21.302 -21.458,34.792c-5.313,47.899 2.569,-14.323 -13.42,27.378c-5,13.021 -8.993,-4.166 -0.921,15.452c78.664,-22.17 182.935,-98.785 226.025,-168.177c38.976,-62.761 79.41,-168.334 6.944,-215.539l-83.906,-47.76c-11.285,-5.677 -15.052,-9.254 -27.517,-15.157c-107.171,-50.729 -320.782,-2.066 -393.16,58.959l-12.587,172.969c2.83,-1.268 6.076,-2.726 8.472,-3.854l49.861,-27.431c15.382,-10.521 23.924,-17.691 40.712,-28.056c74.445,-45.989 103.854,-76.007 220.139,-75.955c56.649,0.035 81.233,16.268 121.285,19.306" style="fill:#6d1a01;"/></g><g><path d="M1625.43,9418.24c26.459,25.277 315.122,86.962 309.254,-82.153c-22.066,-13.646 -12.569,0.295 -40.417,-13.143l25.382,-37.239c-0.521,-0.313 -2.552,-1.597 -3.142,-1.858l-29.254,0.052c-29.67,8.056 -33.628,17.865 -62.291,26.146c12.621,-48.976 33.715,-18.264 15.746,-56.736c-28.68,14.601 -31.458,25.139 -60.573,22.778c-42.986,-3.49 -19.462,8.142 -69.913,19.305c35.781,-88.784 58.281,-51.441 47.431,-83.698c-21.111,-5.989 -55.521,7.101 -75.33,11.424c10.642,-19.792 28.871,-41.753 47.951,-60.799c-13.976,-9.548 -76.215,-34.392 -140.017,-40.243c-17.136,-1.562 -16.059,-0.347 -32.049,-4.028c-6.059,-1.388 -10.694,1.632 -13.524,-4.895c-1.146,-2.674 -4.323,-1.702 -6.268,-2.969c35.452,-28.195 113.994,-28.629 162.257,-35.226c8.073,-24.583 -8.611,-4.67 13.073,-19.548c20.747,9.201 40.278,20.972 49.237,2.656c-11.962,-29.827 -20.643,-9.393 -82.553,-11.372c-206.58,-6.597 -194.548,63.229 -220.121,97.136c26.093,15.434 42.239,7.899 51.007,40.451c0.295,1.111 0.573,3.906 0.659,4.913l-7.552,13.368c32.014,8.004 18.733,10.087 46.476,5.764c22.76,-3.541 -26.944,-29.027 29.184,0.243c15.903,8.299 12.986,15.087 8.976,32.414c-3.75,16.163 2.847,2.048 -5.382,16.909l22.396,0c-16.684,39.688 -5.782,16.563 2.361,30.851c11.163,19.601 0.521,6.493 16.823,5.226c31.892,-2.448 33.42,15.66 48.507,16.041l-14.601,34.271c-0.99,1.476 -2.587,3.577 -3.663,4.931c-31.511,39.705 -38.959,-1.354 -30.07,69.028" style="fill:#481702;"/></g><g><path d="M2549.78,10859.3c90.752,109.043 156.865,98.763 327.313,94.209c66.942,-1.792 129.135,15.543 195.379,-5.352c63.042,-19.872 83.786,-47.11 123.446,-91.772c-99.272,-83.267 -548.597,-73.626 -646.138,2.915" style="fill:#ca6337;"/></g><g><path d="M8164.02,9198.58l26.458,10.573c1.615,0.972 3.802,2.43 5.365,3.524l40.469,45.903c10.139,12.465 2.361,7.43 22.517,22.066c30.573,22.17 89.427,48.541 130.695,52.864c123.038,12.9 196.58,-28.194 272.031,-84.323c-46.458,-23.767 -15.851,-38.281 -91.111,-74.132c-241.875,-115.243 -340.66,12.639 -406.424,23.525" style="fill:#444b07;"/></g><g><path d="M7959.17,10027.7c-0.66,14.306 4.601,5.122 -21.007,34.427c-23.993,27.466 -19.74,23.212 -53.368,30.191l10.503,10.539c20.365,31.718 -9.461,31.059 -22.777,60.659c-0.4,-0.416 -0.382,-1.58 -0.417,-1.701l-4.965,-12.674c-1.719,-2.326 -10.191,-18.211 -47.813,-4.705c3.195,-26.701 10.92,-25.885 2.153,-43.854c-47.708,-13.333 -39.514,-20.139 -64.965,-56.944l-11.042,-14.219c-0.538,-2.743 -2.656,-3.16 -3.802,-4.861c0.816,-0.955 53.142,-55.903 30.729,-23.646l-10.017,-13.837c-3.368,-0.746 -1.893,29.757 -15.052,2.344c-1.441,-3.038 -5.921,2.153 -9.028,2.361l31.163,-33.142l-20.747,-8.507c-52.656,15.451 -86.77,108.715 -82.986,184.67c1.806,36.111 6.441,74.202 26.198,102.847c20.382,29.566 39.393,52.796 77.153,65.226c166.563,54.844 276.181,-178.212 190.087,-275.174" style="fill:#2b2e30;"/></g><g><path d="M8018.51,8688.38c30.782,-22.153 84.011,-24.965 129.566,-40.243c58.525,-19.653 110.139,-45.955 142.014,-94.028c1.077,-1.615 2.379,-3.819 3.455,-5.417c1.042,-1.545 2.466,-3.663 3.525,-5.191l34.514,-60.833c25.954,-56.806 28.385,-74.392 48.628,-133.681c-153.299,36.841 -195.695,13.299 -292.761,142.726c-7.378,9.844 -24.201,37.795 -32.448,55.365c-20.104,42.83 -13.975,102.465 -36.493,141.302" style="fill:#4a5508;"/></g><g><path d="M7214.71,8601.1c-23.525,-22.118 5.989,-146.494 -48.941,-259.827l-37.639,-50.833c-1.268,-1.181 -3.177,-2.934 -4.462,-4.08l-39.653,-29.948c-40.781,-27.24 -74.566,-52.292 -123.698,-50.66c-66.042,137.986 52.743,264.063 152.795,334.393c19.184,13.489 35.99,21.718 54.723,31.614l46.875,29.341Z" style="fill:#4a5508;"/></g><g><path d="M8202.66,9546.38c-13.177,-1.423 -19.097,-6.198 -19.913,-6.441c-35.73,-10.677 -29.966,-0.347 -55.4,-3.993c-9.375,45.174 3.959,23.403 -14.045,42.153c-0.382,0.382 -22.847,9.531 -23.871,9.687l-24.011,2.396c-12.812,1.979 -19.462,3.716 -34.549,4.584l-25.972,-3.855c-16.927,-13.35 -19.288,-49.027 -68.472,-63.177c8.941,-27.378 -15.451,8.473 5.538,-5.486c10.886,-7.222 0.035,30.816 5.799,-2.639c0.208,-1.198 2.205,-0.451 3.09,-1.093c-9.653,-8.056 -17.344,-14.653 -24.583,-26.059c18.923,-38.108 0.052,0.902 12.986,-15.591c2.135,-2.708 10.625,3.299 11.493,-53.871c26.18,8.541 51.076,-17.57 28.16,28.316c-4.167,-40.018 1.857,-63.49 35.26,-58.872c-12.795,-13.299 -8.49,21.788 -11.285,-27.101c-40.798,39.462 -89.114,11.962 -125.451,132.587c-54.184,179.862 101.493,294.428 238.698,221.546c1.285,-0.678 34.288,-25.643 35.035,-26.303c36.875,-32.482 61.962,-94.444 51.493,-146.788" style="fill:#2b2e30;"/></g><g><path d="M6620.68,9938.71c-14.826,31.701 -17.083,58.993 -7.378,99.306c29.635,122.899 195.104,220.208 307.136,66.423c25.833,-35.451 53.923,-123.333 21.527,-169.601c-17.517,-14.896 -13.698,-17.951 -23.489,-41.562l-24.861,47.795c-20.487,60.816 -36.372,34.931 -62.049,39.653l-55.59,33.767c-1.129,0.434 -3.594,1.268 -4.723,1.754c-1.163,0.503 -3.541,1.736 -4.67,2.291l-20.052,12.552c-4.34,-38.698 -13.767,-29.739 26.146,-36.979l-81.684,16.406c-23.958,-38.836 8.177,-16.562 -34.184,-51.632c-45.643,-37.777 -20.538,9.185 -36.129,-20.173" style="fill:#2b2e30;"/></g><g><path d="M8132.04,9008.05c49.809,-3.541 72.795,9.237 126.562,-5.711l95.921,-52.83c45.746,-41.285 99.687,-126.233 98.142,-192.205c-79.566,-21.771 -182.431,4.705 -238.976,41.718c-64.809,42.431 -96.719,130.869 -81.649,209.028" style="fill:#4a5508;"/></g><g><path d="M6081.62,8936.64c77.257,118.386 218.924,221.597 408.178,120.33c-5.955,-47.743 -10.538,5.99 -12.535,-38.264c-0.816,-18.038 -2.726,-23.16 -22.309,-45.295c-15.816,-17.865 -65.851,-49.288 -101.962,-63.924c-110.59,-44.791 -178.246,1.407 -271.372,27.153" style="fill:#4a5508;"/></g><g><path d="M7455.53,8650.91l70.016,-87.813c72.854,-112.705 33.789,-307.298 -69.974,-365.051c1.561,36.528 3.634,16.997 -16.688,53.484c-79.824,143.363 -89.288,273.95 16.646,399.38" style="fill:#4a5508;"/></g><g><path d="M6224.59,10002.5c94.74,15.243 216.494,-50.278 259.48,-99.826c28.593,-32.969 49.705,-95.243 58.229,-140.834l-47.952,23.993c9.983,-21.284 7.379,-12.673 27.691,-25.607c11.823,-7.518 17.9,-9.167 26.98,-28.334c-47.622,-12.725 -89.948,-3.819 -134.48,5.07c-50.243,10.052 -33.784,3.229 -75.364,37.049c-11.459,9.305 -11.146,7.812 -24.584,19.739c-53.576,47.57 -87.222,119.705 -90,208.75" style="fill:#444b07;"/></g><g><path d="M6595.73,8865.48c-7.534,-55.469 6.65,-95.434 -9.236,-145.66c-6.58,-20.833 -16.458,-38.906 -24.184,-53.698l-16.232,-27.552c-1.094,-1.51 -2.691,-3.49 -3.802,-4.948c-0.4,-0.538 -11.528,-13.906 -11.91,-14.358c-39.306,-46.093 -137.413,-92.239 -229.167,-92.1c52.309,176.441 80.451,245.156 234.479,311.649c21.58,9.323 41.181,15.295 60.052,26.667" style="fill:#4a5508;"/></g><g><path d="M6890.82,8797.21c10.435,-67.656 100.053,-114.827 2.935,-262.674c-27.431,-41.753 -36.771,-41.024 -72.223,-59.844l-47.812,-31.059c-17.743,-9.444 -35.695,-13.559 -51.268,-20.937c-11.527,91.302 -14.774,163.055 25.278,238.924c41.059,77.777 27.014,61.458 78.281,96.892c1.476,1.024 3.525,2.5 4.966,3.576l13.784,12.466c20.018,16.614 18.091,16.215 46.059,22.656" style="fill:#444b07;"/></g><g><path d="M6784.19,6034.78c38.23,12.761 40.747,16.511 76.632,23.264c25.712,4.844 54.879,11.649 77.466,16.406c48.507,10.209 91.458,17.952 148.108,3.768l14.791,-203.594c-47.969,0.382 -115.243,11.094 -158.646,19.913c-47.43,9.635 -95.573,30.347 -137.396,36.858l-20.955,103.385Z" style="fill:#581902;"/></g><g><path d="M6934.68,8853.36l6.371,23.559l62.674,-25.469c-7.344,49.809 -14.722,38.611 4.097,55.938c16.181,14.878 28.299,24.079 39.375,43.437c1.719,-0.608 3.785,-4.705 4.393,-3.281l54.513,-18.073c28.334,-1.51 23.23,3.246 47.9,-19.792c11.58,-10.798 30.26,-31.076 45.868,-39.409c13.576,-7.257 20.035,-6.337 31.267,-12.205c2.153,-1.129 11.667,-8.056 12.969,-9.549c15.903,-18.281 2.865,11.389 6.51,-13.854c-1.232,-32.656 -19.947,-72.709 -45.763,-90.903c-22.83,-16.111 -75.764,-40.642 -114.237,-38.281c-87.205,5.382 -151.632,60.764 -155.937,147.882" style="fill:#474757;"/></g><g><path d="M7772.28,6024.03l1.562,59.08l144.896,0.486c39.444,-4.497 82.969,-2.448 113.16,-17.743l32.17,-20.625c-25.625,-134.219 -8.385,-110.33 -98.195,-130.556c-71.163,-16.007 -140.26,-26.771 -212.569,-35.452c0.59,43.959 1.441,114.15 18.976,144.81" style="fill:#581902;"/></g><g><path d="M8189.99,9718.32l69.497,46.892c82.118,39.809 198.333,51.788 268.42,-3.455c-23.542,-37.916 -5.486,-32.743 -64.913,-37.17c45.069,-8.073 21.736,0.035 37.187,-14.948c-32.795,-40.781 4.358,-12.17 -46.684,-50.92c-31.007,-23.559 -12.1,-20.486 -36.215,-42.899c-0.955,-0.903 -15.156,-10.73 -15.521,-10.955c-43.611,-28.177 -90.746,-45.729 -143.819,-48.177c-9.115,41.979 -8.316,109.739 -67.952,161.632" style="fill:#444b07;"/></g><g><path d="M6351.67,9383.88c35.538,-18.976 12.673,6.441 26.528,-30.486c-6.459,28.733 -3.629,2.326 7.43,12.031c21.979,19.306 33.264,11.979 31.597,18.959l-4.236,13.888c36.059,23.542 96.528,77.119 169.618,37.327c0.834,-0.452 31.737,-24.757 33.195,-26.563c24.67,-30.538 -2.309,-14.01 20.851,-42.1c0.52,-0.643 15.034,-13.75 19.6,-19.688l17.032,13.629c25.399,15.173 -19.184,12.847 7.413,1.788c2.673,-70.816 -74.67,-144.341 -168.438,-139.358c-27.969,1.476 -38.455,5.712 -61.962,17.917c-54.687,28.385 -83.889,81.18 -98.628,142.656" style="fill:#3b4050;"/></g><g><path d="M8272.11,10126.5c-20.902,-54.184 -49.861,-109.652 -86.458,-155.955l-45.886,-42.586c-26.649,-21.684 -14.392,-17.691 -50.034,-28.855c-77.865,-24.375 -145.591,-29.878 -227.987,-22.638c27.726,24.531 25.469,9.548 50.261,27.291l23.021,21.181c21.788,17.552 17.465,4.271 41.441,37.083c30.034,41.146 23.663,35.573 44.531,85.504c8.403,20.139 -4.844,39.791 100.208,65.104c56.337,13.576 92.223,8.698 150.903,13.871" style="fill:#444b07;"/></g><g><path d="M6003.04,9561.95c164.27,54.286 263.275,-43.015 323.044,-44.898c-20.034,-55.497 -32.797,-112.229 -18.252,-178.213c-73.252,-0.813 -172.654,37.074 -220.516,96.723c-27.093,33.796 -65.99,71.392 -84.276,126.388" style="fill:#444b07;"/></g><g><path d="M6351.67,9383.88c-12.934,113.09 73.889,207.049 182.361,203.021c26.319,-0.972 56.615,-13.247 72.292,-23.524c81.996,-53.802 104.635,-148.785 74.375,-200.712c-26.597,11.041 17.986,13.385 -7.413,-1.788l-17.032,-13.629c-4.566,5.938 -19.08,19.045 -19.6,19.688c-23.16,28.09 3.819,11.562 -20.851,42.1c-1.458,1.806 -32.361,26.111 -33.195,26.563c-73.09,39.792 -133.559,-13.802 -169.618,-37.327l4.236,-13.888c1.667,-6.98 -9.618,0.347 -31.597,-18.959c-11.059,-9.705 -13.889,16.702 -7.43,-12.031c-13.855,36.927 9.01,11.51 -26.528,30.486" style="fill:#2b2e30;"/></g><g><path d="M1558.56,8632.42c13.872,50.608 45.486,75.156 74.358,106.424c25.747,27.899 63.49,45.694 110.434,64.462c72.795,29.114 215.799,43.871 295.295,28.836c-29.965,-35.677 -5.347,-80.173 -1.354,-121.545c-88.663,29.236 -220.746,22.657 -306.615,-8.993c-43.038,-15.851 -133.889,-79.045 -157.951,-104.149c-13.368,-13.941 -15.66,-30.955 -24.896,-39.636c16.788,62.691 27.257,74.532 10.729,74.601" style="fill:#cb984e;"/></g><g><path d="M7748.62,8762.26l45.348,-8.819l-57.414,70.364c18.004,22.969 3.021,26.493 25.677,59.115c22.761,32.812 -6.597,-3.525 10.226,10.607c35.087,29.497 8.594,19.289 21.563,34.15l28.906,-2.795c-3.663,-19.271 -7.934,-18.681 -25.035,-36.007c21.545,6.875 23.768,11.944 45.087,9.826c16.302,-1.615 14.948,-8.021 43.264,-10.347c1.788,-30.851 -4.809,-3.733 7.674,3.212c0.798,0.434 3.142,2.118 4.079,2.621c1.112,0.59 3.559,2.344 4.792,2.934l50.191,-2.604c27.031,-1.649 10.07,22.448 24.184,0.694l3.629,-7.534c0.625,-1.042 1.77,-3.455 2.534,-4.636l23.733,-27.5l14.271,15.365c-0.643,-78.316 -25.886,-155.295 -88.525,-170.538c-25.694,-6.25 -92.5,-4.688 -112.691,1.77c-26.823,8.594 -61.875,45.382 -71.493,60.122" style="fill:#474757;"/></g><g><path d="M6934.68,8853.34c-21.268,79.983 47.378,176.181 93.316,199.514c66.232,33.629 226.059,16.546 241.337,-129.705c2.968,-28.506 1.441,-69.722 -18.716,-88.507c-3.645,25.261 9.393,-4.427 -6.51,13.872c-1.302,1.493 -10.816,8.42 -12.969,9.549c-11.232,5.868 -17.691,4.948 -31.267,12.205c-15.608,8.333 -34.288,28.593 -45.868,39.409c-24.67,23.021 -19.566,18.264 -47.9,19.792l-54.513,18.073c-0.608,-1.424 -2.674,2.656 -4.393,3.281c-11.076,-19.375 -23.194,-28.559 -39.375,-43.455c-18.819,-17.309 -11.441,-6.111 -4.097,-55.937l-62.674,25.486l-6.371,-23.577Z" style="fill:#2b2e30;"/></g><g><path d="M8002.89,9365.34c2.795,48.872 -1.51,13.802 11.285,27.084c-33.403,-4.601 -39.427,18.871 -35.26,58.889c22.916,-45.903 -1.98,-19.792 -28.16,-28.316c-0.868,57.17 -9.358,51.146 -11.493,53.871c-12.934,16.493 5.937,-22.517 -12.986,15.591c7.239,11.406 14.93,17.986 24.583,26.059c-0.885,0.642 -2.882,-0.105 -3.09,1.093c-5.764,33.438 5.087,-4.583 -5.799,2.639c-20.989,13.959 3.403,-21.892 -5.538,5.486c49.184,14.15 51.545,49.827 68.472,63.177l25.972,3.855c15.087,-0.886 21.737,-2.605 34.549,-4.584l24.011,-2.396c1.024,-0.156 23.489,-9.305 23.871,-9.704c18.004,-18.733 4.67,3.02 14.045,-42.153c25.434,3.663 19.67,-6.667 55.4,3.993c0.816,0.243 6.736,5.035 19.913,6.458c-8.733,-69.114 -13.16,-100.017 -50.452,-142.24c-50.243,-56.909 -71.527,-37.17 -149.323,-38.802" style="fill:#3b4050;"/></g><g><path d="M7681.4,8605.53c32.795,0.173 31.024,0.573 54.531,-13.941c1.771,-1.111 19.688,-14.375 20.174,-14.74l84.41,-63.177c29.288,-25.799 95.885,-180.33 49.392,-263.247c-140.66,54.844 -207.153,209.184 -208.507,355.105" style="fill:#4a5508;"/></g><g><path d="M6620.68,9938.71c15.591,29.358 -9.514,-17.622 36.129,20.173c42.361,35.053 10.226,12.778 34.184,51.615l81.684,-16.389c-39.913,7.24 -30.486,-1.719 -26.146,36.979l20.052,-12.569c1.129,-0.556 3.507,-1.771 4.67,-2.274c1.129,-0.504 3.594,-1.32 4.723,-1.754l55.59,-33.785c25.677,-4.704 41.562,21.181 62.049,-39.635l24.861,-47.813c9.791,23.612 5.972,26.667 23.489,41.563c-14.809,-71.441 -80.902,-127.222 -165.173,-126.146c-94.514,1.215 -127.431,63.767 -156.112,130.035" style="fill:#474757;"/></g><g><path d="M7748.62,8762.28c-17.1,7.205 -7.951,-1.614 -21.684,21.059c-10.034,16.58 -9.01,19.861 -13.663,37.101c-24.826,92.014 12.292,177.466 84.028,209.549c92.066,41.18 177.396,-28.16 204.566,-69.219c16.806,-25.365 22.153,-49.583 19.462,-89.844l-14.271,-15.382l-23.733,27.518c-0.764,1.163 -1.909,3.576 -2.534,4.635l-3.629,7.535c-14.114,21.736 2.847,-2.344 -24.184,-0.695l-50.191,2.605c-1.233,-0.591 -3.68,-2.344 -4.792,-2.934c-0.937,-0.504 -3.281,-2.188 -4.079,-2.639c-12.483,-6.945 -5.886,-34.063 -7.674,-3.195c-28.316,2.309 -26.962,8.733 -43.264,10.347c-21.319,2.118 -23.542,-2.968 -45.087,-9.826c17.101,17.309 21.372,16.719 25.035,35.99l-28.906,2.795c-12.969,-14.844 13.524,-4.636 -21.563,-34.132c-16.823,-14.15 12.535,22.205 -10.226,-10.608c-22.656,-32.639 -7.673,-36.146 -25.677,-59.132l57.414,-70.364l-45.348,8.836Z" style="fill:#2b2e30;"/></g><g><path d="M7647.49,9440.02c73.767,60.712 84.861,83.125 72.864,228.629c28.091,-8.403 91.198,-29.619 108.855,-50.73c-46.91,-99.843 62.882,-233.437 67.916,-254.427c-59.479,-58.837 -46.336,-40.677 -128.125,-1.632c-51.875,24.774 -86.319,42.153 -121.51,78.16" style="fill:#ddc596;"/></g><g><path d="M3692.8,8731.76l4.41,106.094c69.67,11.233 179.479,-4.253 240.99,-29.496c67.812,-27.83 92.916,-38.559 130.798,-79.254c29.861,-32.083 19.896,-10.434 24.011,-31.041c3.923,-45.73 21.111,-40.626 26.475,-82.448c-11.041,8.368 -21.163,17.187 -32.395,27.066c-69.514,61.145 -274.671,121.753 -375.973,81.024c-0.278,-1.684 -0.434,-4.427 -0.243,-5.104c0.729,-2.587 -1.823,-9.861 14.08,-13.611l-33.629,-11.806c1.181,1.389 16.806,-20.174 1.476,38.576" style="fill:#cb984e;"/></g><g><path d="M7451.37,9871.6c29.981,-13.94 24.953,-23.484 48.466,-48.759c166.298,-178.849 100.273,-147.741 143.266,-376.321c-25.629,13.752 -63.179,53.551 -78.193,77.423c-69.19,110.033 -109.143,207.142 -113.539,347.657" style="fill:#ddc599;"/></g><g><path d="M6901.26,9654.28c127.25,34.972 184.533,110.786 243.05,152.102l23.607,13.719c-23.73,-100.478 -70.107,-318.038 -194.356,-264.071c-34.33,14.899 -57.681,58.072 -72.301,98.25" style="fill:#ddc596;"/></g><g><path d="M7748.72,9950.09l20.747,8.507l-31.163,33.142c3.107,-0.208 7.587,-5.417 9.028,-2.378c13.159,27.413 11.684,-3.073 15.052,-2.344l10.017,13.854c22.413,-32.257 -29.913,22.691 -30.729,23.646c1.146,1.701 3.264,2.101 3.802,4.844l11.042,14.236c25.451,36.788 17.257,43.611 64.965,56.927c8.767,17.969 1.042,17.17 -2.153,43.871c37.622,-13.506 46.094,2.379 47.813,4.705l4.965,12.674c0.035,0.121 0.017,1.285 0.417,1.701c13.316,-29.6 43.142,-28.941 22.777,-60.659l-10.503,-10.556c33.628,-6.979 29.375,-2.708 53.368,-30.174c25.608,-29.305 20.347,-20.121 21.007,-34.444c-26.215,-52.691 -34.809,-66.979 -84.219,-85.521c-30.26,-11.372 -29.219,-13.49 -62.222,-12.691c-25.781,0.625 -44.115,4.879 -64.011,20.66" style="fill:#3b4050;"/></g><g><path d="M3151.55,10587.1c-19.167,-33.906 -23.056,-20.573 -41.927,-52.118c61.875,-48.837 112.621,-21.719 128.107,-115.921c5.417,-32.847 2.639,-81.007 -25.416,-90c-36.771,-11.77 -41.441,30.99 -57.257,57.275c-17.431,28.993 -196.146,128.142 -85.487,208.264c41.754,30.243 68.16,2.934 81.98,-7.5" style="fill:#110e05;"/></g><g><path d="M2624.93,10535c-9.445,24.757 -22.24,27.899 -40.105,44.618c31.563,23.281 54.08,52.135 99.428,5.885c47.586,-48.541 4.323,-106.875 -37.171,-141.962c-18.611,-15.764 -37.517,-22.413 -46.388,-31.823c-30.209,-31.979 -2.101,-73.975 -62.431,-84.618c-32.743,25.07 -46.719,83.889 -21.979,134.497c23.159,47.413 68.854,44.792 108.646,73.403" style="fill:#110e05;"/></g><g><path d="M6897.23,6714.57c-15.365,-60.034 6.701,-119.184 19.028,-175.955l-38.004,-13.715c-13.194,-3.264 -27.292,-6.354 -39.566,-8.75c-16.684,21.094 -43.924,148.715 -46.215,181.979c31.232,16.719 66.267,15.434 104.757,16.441" style="fill:#752202;"/></g><g><path d="M7966.88,6697.18c31.163,8.64 57.026,-4.083 88.581,-9.912l-44.23,-181.653l-78.063,11.205l33.712,180.36Z" style="fill:#842403;"/></g><g><path d="M8027.56,6498.01c7.505,63.229 39.952,108.077 38.809,182.267c34.656,-10.232 59.212,-22.007 80.369,-46.794l-52.188,-156.97l-66.99,21.497Z" style="fill:#8c2a03;"/></g></g></svg>